<svg width="28" height="28" viewBox="0 0 28 28" fill="none" xmlns="http://www.w3.org/2000/svg">
<path d="M7 11.6673V9.33398C7 5.47232 8.16667 2.33398 14 2.33398C19.8333 2.33398 21 5.47232 21 9.33398V11.6673M11.0833 18.6673C11.0833 19.4409 11.3906 20.1827 11.9376 20.7297C12.4846 21.2767 13.2265 21.584 14 21.584C14.7735 21.584 15.5154 21.2767 16.0624 20.7297C16.6094 20.1827 16.9167 19.4409 16.9167 18.6673C16.9167 17.8938 16.6094 17.1519 16.0624 16.6049C15.5154 16.0579 14.7735 15.7507 14 15.7507" stroke="white" stroke-width="1.5" stroke-linecap="round" stroke-linejoin="round"/>
<path d="M25.6668 19.8327V17.4993C25.6668 12.8327 24.5002 11.666 19.8335 11.666H8.16683C3.50016 11.666 2.3335 12.8327 2.3335 17.4993V19.8327C2.3335 24.4993 3.50016 25.666 8.16683 25.666H19.8335C21.8868 25.666 23.2635 25.4443 24.1618 24.791" stroke="white" stroke-width="1.5" stroke-linecap="round" stroke-linejoin="round"/>
</svg>
