<svg width="21" height="21" viewBox="0 0 21 21" fill="none" xmlns="http://www.w3.org/2000/svg">
<path fill-rule="evenodd" clip-rule="evenodd" d="M16.0413 16.6311C13.4945 19.1782 9.7233 19.7285 6.63717 18.3013C6.18158 18.1178 5.80806 17.9696 5.45297 17.9696C4.4639 17.9754 3.23279 18.9345 2.59295 18.2954C1.95312 17.6555 2.91287 16.4234 2.91287 15.4284C2.91287 15.0732 2.7705 14.7064 2.58709 14.2499C1.15918 11.1643 1.71025 7.39182 4.25704 4.84559C7.50815 1.59328 12.7902 1.59328 16.0413 4.84475C19.2983 8.10209 19.2924 13.3797 16.0413 16.6311Z" stroke="white" stroke-width="1.29254" stroke-linecap="round" stroke-linejoin="round"/>
<path d="M13.4313 11.0841H13.4388" stroke="white" stroke-width="1.72338" stroke-linecap="round" stroke-linejoin="round"/>
<path d="M10.0905 11.0841H10.098" stroke="white" stroke-width="1.72338" stroke-linecap="round" stroke-linejoin="round"/>
<path d="M6.74968 11.0841H6.75718" stroke="white" stroke-width="1.72338" stroke-linecap="round" stroke-linejoin="round"/>
</svg>
