<svg width="19" height="18" viewBox="0 0 19 18" fill="none" xmlns="http://www.w3.org/2000/svg">
<g clip-path="url(#clip0_12003_34)">
<path d="M11.0043 11.0283C10.5565 11.3268 10.0363 11.4847 9.5 11.4847C8.96373 11.4847 8.44355 11.3268 7.99573 11.0283L0.619848 6.11089C0.57913 6.08366 0.539166 6.05533 0.5 6.02591L0.5 14.0836C0.5 15.0075 1.24971 15.7406 2.15702 15.7406H16.8429C17.7668 15.7406 18.5 14.9909 18.5 14.0836V6.02588C18.4607 6.05537 18.4207 6.08377 18.3799 6.11103L11.0043 11.0283Z" fill="#E9E9E9"/>
<path d="M1.20488 5.23321L8.58077 10.1507C8.85998 10.3368 9.17997 10.4299 9.49997 10.4299C9.81999 10.4299 10.14 10.3368 10.4192 10.1507L17.7951 5.23321C18.2365 4.93913 18.5 4.44695 18.5 3.91573C18.5 3.00234 17.7569 2.25928 16.8435 2.25928H2.15646C1.2431 2.25931 0.500001 3.00237 0.500001 3.91661C0.499727 4.17719 0.56395 4.43379 0.686942 4.66352C0.809934 4.89325 0.987872 5.08897 1.20488 5.23321Z" fill="#E9E9E9"/>
</g>
<defs>
<clipPath id="clip0_12003_34">
<rect width="18" height="18" fill="white" transform="translate(0.5)"/>
</clipPath>
</defs>
</svg>
