<svg width="30" height="30" viewBox="0 0 30 30" fill="none" xmlns="http://www.w3.org/2000/svg">
<path d="M27.975 2.42268C27.9624 2.31888 27.9154 2.2223 27.8415 2.14837C27.7676 2.07443 27.671 2.02743 27.5672 2.01487C25.7962 1.79929 24.0029 1.84985 22.2469 2.16487C18.6239 2.78596 15.0422 4.75471 12.2653 7.43924C12.0089 7.68299 11.3972 8.26096 11.1506 8.49768C9.68859 10.1875 8.00343 12.4258 7.02421 14.3196C6.88265 14.6064 7.02234 14.8244 7.26328 15.0316C7.48781 15.2566 7.91859 15.6827 8.46656 16.2306C10.5619 18.3307 12.8489 20.6172 14.9587 22.7271L15.1181 22.8864C15.3398 23.1133 15.6567 23.0116 15.8859 22.8489C17.3496 22.0317 18.741 21.0915 20.0452 20.0383C25.3547 15.88 28.9134 9.25331 27.975 2.42268ZM21.8812 13.4294C19.5684 15.7942 15.4214 14.081 15.4594 10.7692C15.4289 7.45331 19.5544 5.74284 21.8812 8.10909C23.3517 9.57487 23.3517 11.9636 21.8812 13.4294ZM2.76656 15.5749C2.78531 15.5749 2.80406 15.5749 2.82281 15.5702L6.18093 15.1624C5.93109 14.688 6.01781 14.1133 6.31218 13.6685C6.54656 13.2372 6.93046 12.5772 7.46437 11.7667C8.35031 10.3858 9.44249 9.06627 10.4902 7.83721L11.1647 7.19549C5.5514 7.13924 2.67796 12.0738 2.30765 15.0363C2.25374 15.3067 2.48624 15.5838 2.76656 15.5749ZM20.6353 20.7644C19.2892 21.8533 17.8522 22.8249 16.3402 23.6683C15.9084 23.9646 15.3052 24.0686 14.8275 23.8089L14.4197 27.1671C14.3798 27.4342 14.6095 27.6986 14.8837 27.6921C15.7683 27.5622 19.7555 26.7621 21.8016 22.9286C22.4428 21.7253 22.8187 20.1114 22.7991 18.8158C22.1131 19.5035 21.3908 20.1539 20.6353 20.7644ZM12.4012 21.4952C11.0058 20.096 9.3989 18.491 8.0264 17.1157L7.70765 17.7625C7.57693 18.0255 7.53194 18.3228 7.57903 18.6126C7.62612 18.9025 7.76291 19.1703 7.97015 19.3783L10.612 22.0197C10.8195 22.2279 11.0873 22.3653 11.3774 22.4124C11.6675 22.4596 11.9651 22.414 12.2278 22.2822L12.8742 21.9635C12.7177 21.8078 12.5653 21.6527 12.4012 21.4952ZM8.02171 21.9869C4.78546 19.1074 1.92328 24.7867 1.8764 27.6166C1.85203 27.8861 2.10234 28.1369 2.37328 28.1135C5.19515 28.0661 10.8609 25.2199 8.02171 21.9869Z" fill="white"/>
<path d="M19.2206 7.94531C15.4978 8.04234 15.4748 13.4864 19.2206 13.5937C22.9683 13.4841 22.9439 8.04187 19.2206 7.94531Z" fill="white"/>
</svg>
