    <svg width="24" height="24" viewBox="0 0 24 24" fill="none" xmlns="http://www.w3.org/2000/svg">
<g clip-path="url(#clip0_12371_1736)">
<path fill-rule="evenodd" clip-rule="evenodd" d="M11.5767 24.0006C9.09475 23.6196 6.97927 21.4948 8.00407 16.9853C9.0416 18.4901 9.41919 17.6951 9.41919 17.6951C9.48175 12.5849 13.3501 11.3066 13.3501 11.3066C12.193 13.9192 14.4828 13.9917 14.6395 16.9565C15.5829 16.4743 15.9284 15.9345 15.9284 15.9345C19.0526 20.135 16.7367 23.1402 13.7814 23.9114C18.5145 23.3041 22.5838 19.2962 20.6344 10.718C18.6756 13.5582 17.9636 12.0579 17.9636 12.0579C17.844 2.41168 10.5436 0 10.5436 0C12.7283 4.93132 8.40491 5.06752 8.10981 10.6643C6.32929 9.75358 5.67654 8.73543 5.67654 8.73543C-0.860359 17.5246 5.22089 23.5432 11.5767 24.0006Z" fill="#23769D"/>
</g>
<defs>
<clipPath id="clip0_12371_1736">
<rect width="24" height="24" fill="white"/>
</clipPath>
</defs>
</svg>
