<svg width="28" height="28" viewBox="0 0 28 28" fill="none" xmlns="http://www.w3.org/2000/svg">
<path d="M26.975 1.42268C26.9624 1.31888 26.9154 1.2223 26.8415 1.14837C26.7676 1.07443 26.671 1.02743 26.5672 1.01487C24.7962 0.79929 23.0029 0.84985 21.2469 1.16487C17.6239 1.78596 14.0422 3.75471 11.2653 6.43924C11.0089 6.68299 10.3972 7.26096 10.1506 7.49768C8.68859 9.18752 7.00343 11.4258 6.02421 13.3196C5.88265 13.6064 6.02234 13.8244 6.26328 14.0316C6.48781 14.2566 6.91859 14.6827 7.46656 15.2306C9.56187 17.3307 11.8489 19.6172 13.9587 21.7271L14.1181 21.8864C14.3398 22.1133 14.6567 22.0116 14.8859 21.8489C16.3496 21.0317 17.741 20.0915 19.0452 19.0383C24.3547 14.88 27.9134 8.25331 26.975 1.42268ZM20.8812 12.4294C18.5684 14.7942 14.4214 13.081 14.4594 9.76924C14.4289 6.45331 18.5544 4.74284 20.8812 7.10909C22.3517 8.57487 22.3517 10.9636 20.8812 12.4294ZM1.76656 14.5749C1.78531 14.5749 1.80406 14.5749 1.82281 14.5702L5.18093 14.1624C4.93109 13.688 5.01781 13.1133 5.31218 12.6685C5.54656 12.2372 5.93046 11.5772 6.46437 10.7667C7.35031 9.38581 8.44249 8.06627 9.49015 6.83721L10.1647 6.19549C4.5514 6.13924 1.67796 11.0738 1.30765 14.0363C1.25374 14.3067 1.48624 14.5838 1.76656 14.5749ZM19.6353 19.7644C18.2892 20.8533 16.8522 21.8249 15.3402 22.6683C14.9084 22.9646 14.3052 23.0686 13.8275 22.8089L13.4197 26.1671C13.3798 26.4342 13.6095 26.6986 13.8837 26.6921C14.7683 26.5622 18.7555 25.7621 20.8016 21.9286C21.4428 20.7253 21.8187 19.1114 21.7991 17.8158C21.1131 18.5035 20.3908 19.1539 19.6353 19.7644ZM11.4012 20.4952C10.0058 19.096 8.3989 17.491 7.0264 16.1157L6.70765 16.7625C6.57693 17.0255 6.53194 17.3228 6.57903 17.6126C6.62612 17.9025 6.76291 18.1703 6.97015 18.3783L9.61203 21.0197C9.81949 21.2279 10.0873 21.3653 10.3774 21.4124C10.6675 21.4596 10.9651 21.414 11.2278 21.2822L11.8742 20.9635C11.7177 20.8078 11.5653 20.6527 11.4012 20.4952ZM7.02171 20.9869C3.78546 18.1074 0.923276 23.7867 0.876401 26.6166C0.852026 26.8861 1.10234 27.1369 1.37328 27.1135C4.19515 27.0661 9.86093 24.2199 7.02171 20.9869Z" fill="white"/>
<path d="M18.2206 6.94531C14.4978 7.04234 14.4748 12.4864 18.2206 12.5937C21.9683 12.4841 21.9439 7.04187 18.2206 6.94531Z" fill="white"/>
</svg>
