<svg width="30" height="30" viewBox="0 0 30 30" fill="none" xmlns="http://www.w3.org/2000/svg">
<path d="M27.5841 2.00622C22.0106 1.3045 16.5797 3.34356 12.4495 7.27168C6.52453 6.45934 2.84297 11.1797 2.30391 15.0347C2.24953 15.3318 2.52422 15.6173 2.82282 15.5737L7.26844 15.0337C7.58391 15.3492 7.97766 15.7415 8.46938 16.2309L7.70907 17.7637C7.57833 18.0275 7.5337 18.3256 7.58147 18.6161C7.62924 18.9066 7.767 19.1748 7.97532 19.3828L10.6167 22.0242C10.8247 22.2325 11.0929 22.3702 11.3834 22.4179C11.6739 22.4656 11.9721 22.4208 12.2358 22.29L13.7663 21.5311L15.127 22.8923C15.2747 23.04 15.5011 23.0709 15.6825 22.9729C17.1483 22.1761 19.5581 20.6826 21.8686 18.4401C22.1217 22.9804 18.5789 25.9654 15.4355 26.6414L15.6427 24.9422C15.7059 24.3262 14.7947 24.2184 14.7127 24.8287L14.4267 27.1772C14.4178 27.2493 14.4259 27.3225 14.4502 27.391C14.4745 27.4595 14.5145 27.5214 14.5669 27.5718C14.6193 27.6222 14.6827 27.6597 14.7521 27.6814C14.8215 27.703 14.895 27.7082 14.9667 27.6965C18.5967 27.1884 23.5467 23.6676 22.7306 17.5598C26.2561 14.0142 28.8202 7.97106 27.9938 2.41543C27.9814 2.31103 27.9342 2.21382 27.8599 2.13943C27.7856 2.06504 27.6885 2.01779 27.5841 2.00528V2.00622ZM11.8191 21.45C11.7313 21.4936 11.6321 21.5086 11.5353 21.4927C11.4386 21.4769 11.3493 21.4311 11.28 21.3618L8.63813 18.7204C8.56873 18.6512 8.52281 18.562 8.50683 18.4652C8.49085 18.3685 8.50563 18.2692 8.54907 18.1814L9.16922 16.9303C10.3819 18.1453 11.8533 19.6181 13.0669 20.8322L11.8191 21.4504V21.45ZM26.9217 7.57262C25.493 15.5329 18.7158 20.1989 15.5405 21.9806C13.9936 20.4342 10.1517 16.5839 8.01938 14.459C8.70938 13.2098 9.85313 11.5186 10.8469 10.3406C11.2359 9.86715 10.5169 9.27184 10.1245 9.74247C9.08625 10.9673 7.83985 12.8231 7.14469 14.1042L3.35719 14.5645C3.68157 13.2473 4.67672 10.4972 7.49907 9.0159C9.51047 7.95981 11.5055 8.07044 12.5156 8.2284C12.6586 8.24622 12.8072 8.21387 12.9178 8.11309C16.7803 4.3809 21.8466 2.34325 27.1031 2.89684C27.2593 4.45632 27.1983 6.02993 26.9217 7.57262ZM8.0236 21.9923C4.78735 19.11 1.92047 24.7992 1.87594 27.6267C1.8525 27.8995 2.10094 28.1479 2.37328 28.124C5.19375 28.08 10.8694 25.2248 8.0236 21.9923ZM7.14 25.169C6.41992 25.813 5.58917 26.3212 4.68797 26.669C4.10084 26.8951 3.48913 27.0514 2.86547 27.1345C3.0773 25.5423 3.76366 24.0509 4.83516 22.8543C6.50672 20.8997 9.11579 23.4693 7.14 25.169Z" fill="#BABABA"/>
<path d="M16.5703 8.10291C14.2022 10.4242 15.9178 14.567 19.2333 14.5332C22.552 14.5613 24.2602 10.4363 21.8972 8.10291C20.4286 6.63432 18.0384 6.63432 16.5703 8.10291ZM21.2344 12.767C18.5091 15.3315 14.6691 11.4896 17.2331 8.76572C19.9748 6.21244 23.7872 10.0257 21.2344 12.767Z" fill="#BABABA"/>
</svg>
