<svg width="31" height="22" viewBox="0 0 31 22" fill="none" xmlns="http://www.w3.org/2000/svg">
<path fill-rule="evenodd" clip-rule="evenodd" d="M25.2452 13.61C21.5721 16.7207 16.7917 19.4799 12.2575 21.0968C13.3822 21.4131 14.5773 21.5186 15.7548 21.4307C18.9886 21.2022 21.9763 19.4799 23.7865 16.791C24.4543 15.8244 24.9464 14.7347 25.2452 13.61ZM17.8638 15.8244C14.507 17.7752 11.1503 19.023 8.47891 19.4975C6.77416 19.7787 4.43673 19.9544 3.1362 18.7242C2.31019 17.9685 2.20474 16.9843 2.50351 15.8771C2.73198 15.0862 3.1362 14.2954 3.80404 13.3815C3.76889 13.2409 3.73374 13.1003 3.71617 12.9597C2.43321 14.3657 1.48418 15.7189 0.95694 16.9492C0.39455 18.3024 0.166079 19.849 1.37873 20.8332C2.48594 21.747 4.55975 21.9579 7.16081 21.5537C8.46133 21.3428 9.76186 21.0089 11.0097 20.6047C16.0009 19.0054 21.4315 15.8771 25.333 12.3797C26.3524 11.4659 27.3366 10.4817 28.1801 9.40961C30.1837 6.93158 31.0097 4.68202 30.1661 3.2409C29.6916 2.41488 28.6722 1.92279 27.3014 1.74705C25.9657 1.58887 24.3137 1.72947 22.4684 2.13369C22.5738 2.22156 22.6617 2.30944 22.7671 2.41488C23.8919 2.30944 24.8585 2.34459 25.6494 2.57306C26.5105 2.80153 27.2487 3.27604 27.6178 4.10206C28.391 5.89467 26.8972 8.12666 25.7373 9.51506C23.9974 11.6064 21.2381 13.8736 17.8638 15.8244ZM17.7408 0.604691C15.2627 -0.0631469 12.5387 0.182899 10.0958 1.44828C9.83216 1.58887 9.56854 1.74705 9.30492 1.90522C6.98506 3.38149 5.42091 5.61348 4.75307 8.10909C4.05009 10.7277 4.34886 13.6275 5.80756 16.1583C6.35237 17.1073 7.05536 17.9685 7.8638 18.7066C8.02197 18.689 8.16256 18.6715 8.32074 18.6363C10.9218 18.197 14.1555 16.9667 17.442 15.0687C20.7109 13.1882 23.3998 10.9913 25.0694 8.97024C25.1749 8.84722 25.2803 8.7242 25.3682 8.60118C25.2627 8.10909 25.1221 7.61699 24.9288 7.14248C24.7355 6.59766 24.4895 6.07042 24.1907 5.54318C22.7847 3.11787 20.4649 1.34283 17.7408 0.604691Z" fill="white"/>
</svg>
