<svg width="31" height="22" viewBox="0 0 31 22" fill="none" xmlns="http://www.w3.org/2000/svg">
<path d="M7.91653 19.058C7.99809 19.128 8.1041 19.1626 8.21121 19.1544C8.31833 19.1461 8.41779 19.0957 8.4877 19.0141C8.55762 18.9325 8.59227 18.8265 8.58403 18.7194C8.57579 18.6123 8.52534 18.5128 8.44377 18.4429C7.20857 17.3694 6.25518 16.0096 5.66699 14.4824C5.07879 12.9553 4.8737 11.3073 5.06964 9.68253C5.26558 8.05778 5.85659 6.50578 6.79098 5.16224C7.72538 3.8187 8.9747 2.72454 10.4297 1.97544C11.8127 1.25473 13.3449 0.866872 14.9042 0.84274C16.4635 0.818608 18.0069 1.15887 19.4116 1.83644C20.8162 2.51401 22.0432 3.51016 22.995 4.74559C23.9467 5.98102 24.5969 7.42159 24.8937 8.9526C24.917 9.0598 24.9819 9.15336 25.0742 9.21269C25.1665 9.27201 25.2786 9.29225 25.3858 9.26894C25.493 9.24564 25.5865 9.1807 25.6459 9.08841C25.7052 8.99613 25.7254 8.88406 25.7021 8.77685C25.3151 6.78149 24.3724 4.93601 22.9826 3.4529C21.5927 1.96979 19.8123 0.909361 17.8462 0.393722C16.4695 0.019676 15.0323 -0.0781065 13.6175 0.106014C12.2028 0.290134 10.8385 0.752514 9.60337 1.46649C8.36822 2.18046 7.28663 3.1319 6.42099 4.26593C5.55534 5.39997 4.92277 6.69416 4.55976 8.07386C4.02843 10.0336 4.05984 12.1033 4.65041 14.046C5.24098 15.9886 6.3844 17.7256 7.91653 19.058ZM25.79 12.3797C25.804 12.2701 25.7739 12.1595 25.7063 12.0722C25.6387 11.9848 25.5392 11.9279 25.4297 11.9139C25.3202 11.9 25.2096 11.9301 25.1222 11.9976C25.0349 12.0652 24.978 12.1647 24.964 12.2742C24.7446 13.7778 24.1878 15.2123 23.3352 16.4701C22.4827 17.7279 21.3566 18.7765 20.0413 19.5373C18.7259 20.2981 17.2555 20.7514 15.7401 20.8632C14.2247 20.975 12.7036 20.7424 11.2909 20.1828C11.2412 20.1632 11.1882 20.1536 11.1349 20.1544C11.0815 20.1553 11.0289 20.1667 10.9799 20.1879C10.931 20.2091 10.8867 20.2397 10.8496 20.2781C10.8124 20.3164 10.7832 20.3617 10.7636 20.4113C10.744 20.4609 10.7344 20.5139 10.7352 20.5673C10.7361 20.6206 10.7475 20.6733 10.7687 20.7222C10.7899 20.7712 10.8205 20.8155 10.8589 20.8526C10.8972 20.8897 10.9425 20.9189 10.9921 20.9385C13.2953 21.8564 15.8427 21.9613 18.2136 21.236C20.5844 20.5107 22.6371 18.9985 24.0325 16.9491C24.9574 15.579 25.5584 14.0164 25.79 12.3797Z" fill="#BABABA"/>
<path d="M22.2926 2.90738C22.1854 2.9167 22.0863 2.96822 22.0171 3.05062C21.9479 3.13302 21.9142 3.23954 21.9236 3.34674C21.9329 3.45395 21.9844 3.55306 22.0668 3.62227C22.1492 3.69149 22.2557 3.72513 22.3629 3.71581C23.2069 3.60122 24.0648 3.64292 24.8937 3.83883C27.7056 4.61212 25.8251 7.58224 24.5598 9.09367C22.978 11.0093 20.4473 13.0831 17.3541 14.8757C14.2434 16.6508 11.1854 17.8107 8.74254 18.2325C6.7566 18.584 3.24166 18.6894 4.01495 15.8423C4.26735 15.029 4.67299 14.2714 5.21002 13.6104C5.27528 13.5241 5.30361 13.4155 5.28878 13.3084C5.27394 13.2013 5.21717 13.1044 5.13094 13.0392C5.04471 12.9739 4.93609 12.9456 4.82897 12.9604C4.72185 12.9753 4.62502 13.032 4.55976 13.1183C3.9583 13.8631 3.50492 14.7162 3.22408 15.6315C2.27505 19.1288 6.17663 19.4979 8.86556 19.0409C11.4139 18.6016 14.5598 17.4065 17.7584 15.5787C20.9218 13.7334 23.558 11.5893 25.1924 9.60333C26.9148 7.54709 28.5668 3.99701 25.1222 3.04797C24.19 2.82508 23.2246 2.7774 22.275 2.90738H22.2926Z" fill="#BABABA"/>
<path d="M21.0624 2.04543C20.9575 2.0734 20.868 2.14188 20.8137 2.23582C20.7593 2.32975 20.7444 2.44144 20.7724 2.54631C20.8004 2.65119 20.8689 2.74066 20.9628 2.79504C21.0567 2.84942 21.1684 2.86426 21.2733 2.83629C23.023 2.32421 24.851 2.13367 26.6687 2.2739C27.9692 2.43208 28.9359 2.88902 29.3928 3.67988C30.1661 5.03313 29.3928 7.17724 27.4947 9.51468C23.2592 14.7871 14.3313 19.954 7.63533 20.991C4.05009 21.5533 -0.044812 20.9207 1.76538 16.65C2.5473 15.0124 3.61904 13.5299 4.92883 12.2739C4.98266 12.1961 5.00749 12.1018 4.99897 12.0076C4.99045 11.9133 4.94913 11.825 4.88222 11.7581C4.8153 11.6912 4.72702 11.6499 4.63277 11.6414C4.53852 11.6329 4.44427 11.6577 4.36644 11.7115C2.98285 13.0375 1.85145 14.6036 1.02724 16.3337C-1.04657 21.237 3.4877 22.4672 7.77593 21.7994C14.6828 20.7273 23.7689 15.4725 28.1626 10.0243C30.2715 7.40571 31.08 4.94526 30.1134 3.27566C29.5158 2.23875 28.3559 1.64122 26.7742 1.44789C24.8614 1.30274 22.9382 1.50519 21.0975 2.04543H21.0624Z" fill="#BABABA"/>
</svg>
