<svg width="30" height="30" viewBox="0 0 30 30" fill="none" xmlns="http://www.w3.org/2000/svg">
<g clip-path="url(#clip0_13267_628)">
<path d="M24.15 14.0985C23.9783 13.9269 23.7455 13.8305 23.5027 13.8305C23.26 13.8305 23.0271 13.9269 22.8554 14.0985L21.5807 15.3737L20.8397 14.6325L24.6366 10.8359C24.7774 10.6972 24.8892 10.5319 24.9656 10.3496C25.042 10.1673 25.0814 9.9717 25.0816 9.77407C25.0818 9.57644 25.0428 9.38074 24.9668 9.19832C24.8907 9.0159 24.7792 8.8504 24.6387 8.71141L21.3337 5.4059C20.7471 4.82155 19.7981 4.82178 19.2117 5.40637L15.4125 9.2053L14.6265 8.41932L15.9016 7.1445C16.2585 6.78672 16.2585 6.20764 15.9016 5.84993L10.3194 0.267935C9.96193 -0.0893115 9.38238 -0.0893115 9.02484 0.267935L5.49961 3.79334C5.1426 4.15112 5.1426 4.73038 5.49961 5.08838L11.0811 10.6699C11.1659 10.7554 11.2668 10.8231 11.3779 10.8692C11.4891 10.9153 11.6083 10.9388 11.7287 10.9384H11.7296C11.8498 10.9385 11.9688 10.9149 12.0797 10.8688C12.1907 10.8227 12.2915 10.7551 12.3762 10.6699L13.9195 9.12655L14.7055 9.91252L11.067 13.551C9.70866 13.5716 8.39911 14.0604 7.35955 14.9349C7.26174 15.0176 7.18212 15.1196 7.12571 15.2346C7.06929 15.3496 7.03731 15.475 7.03178 15.603C7.02655 15.7293 7.04754 15.8554 7.09342 15.9733C7.13931 16.0911 7.20909 16.1982 7.29838 16.2878L14.3224 23.3124C14.4942 23.4832 14.7264 23.5792 14.9687 23.5795C14.9815 23.5795 14.9948 23.579 15.0074 23.5783C15.1353 23.5728 15.2606 23.5408 15.3756 23.4845C15.4905 23.4281 15.5925 23.3485 15.6752 23.2508C16.2274 22.6009 16.6303 21.838 16.8558 21.0156C17.0813 20.1932 17.1238 19.3314 16.9804 18.4908L20.1325 15.3393L20.8734 16.0802L19.3305 17.6233C19.2453 17.7082 19.1776 17.8091 19.1314 17.9202C19.0852 18.0313 19.0614 18.1505 19.0613 18.2708C19.0613 18.3911 19.085 18.5103 19.1311 18.6215C19.1772 18.7326 19.2448 18.8336 19.33 18.9186L24.9115 24.5003C25.2696 24.8572 25.8488 24.8572 26.2066 24.5003L29.7321 20.9748C30.0889 20.6171 30.0889 20.038 29.7321 19.6805L24.15 14.0985ZM11.7286 9.90315L6.26607 4.44086L9.67184 1.03487L15.1344 6.49739L11.7286 9.90315ZM14.965 22.5408L8.06953 15.6449C10.0189 14.0596 12.8515 14.2052 14.6281 15.982C16.405 17.7588 16.5505 20.5915 14.965 22.5408H14.965ZM15.3367 15.2739C14.5246 14.4583 13.4901 13.9003 12.3626 13.6696L15.7542 10.278C15.7585 10.2739 15.7645 10.2728 15.7688 10.2684C15.7729 10.2641 15.7743 10.2583 15.7784 10.254L19.9187 6.11354C20.0127 6.01997 20.1399 5.9674 20.2725 5.96731C20.4052 5.96722 20.5324 6.01962 20.6266 6.11307L23.9317 9.41811C23.9792 9.46476 24.0169 9.52041 24.0426 9.5818C24.0683 9.64319 24.0816 9.70909 24.0816 9.77565C24.0812 9.8411 24.0678 9.90583 24.0421 9.96601C24.0163 10.0262 23.9788 10.0806 23.9317 10.126L16.6843 17.3731C16.3906 16.5849 15.9309 15.869 15.3364 15.2739H15.3367ZM25.5592 23.7338L20.0967 18.2713L23.5025 14.8655L28.965 20.328L25.5592 23.7338ZM11 28.9999C5.47969 28.9937 1.00617 24.5202 0.999961 18.9998C0.999961 18.8672 0.947285 18.7401 0.85352 18.6463C0.759755 18.5525 0.632584 18.4998 0.49998 18.4998C0.367377 18.4998 0.240205 18.5525 0.146441 18.6463C0.0526764 18.7401 0 18.8672 0 18.9998C0.00685547 25.0723 4.92762 29.993 11 29.9999C11.2761 29.9999 11.5 29.776 11.5 29.4998C11.5 29.2237 11.2761 28.9999 11 28.9999Z" fill="#BABABA"/>
<path d="M11 26C7.13584 25.9957 4.00429 22.8641 3.99996 18.9999C3.99996 18.7239 3.77613 18.5 3.50004 18.5C3.43437 18.5 3.36935 18.5129 3.30868 18.538C3.24801 18.5631 3.19288 18.6 3.14644 18.6464C3.1 18.6928 3.06316 18.7479 3.03803 18.8086C3.01289 18.8692 2.99995 18.9343 2.99994 18.9999C3.00498 23.4161 6.58377 26.995 11 27C11.2761 27 11.5 26.7762 11.5 26.4999C11.5 26.2239 11.2761 26 11 26Z" fill="#BABABA"/>
<path d="M11 23C8.79181 22.9972 7.00265 21.2081 6.99984 18.9998C6.99984 18.7238 6.77601 18.5 6.50003 18.5C6.43438 18.5 6.36936 18.5129 6.30869 18.538C6.24802 18.5631 6.19289 18.5999 6.14644 18.6463C6.1 18.6927 6.06315 18.7478 6.038 18.8085C6.01286 18.8691 5.9999 18.9341 5.99988 18.9998C6.0031 21.7599 8.23992 23.9968 11 24C11.2761 24 11.5 23.7762 11.5 23.4999C11.5 23.2239 11.2761 23.0001 11 23.0001V23Z" fill="#BABABA"/>
</g>
<defs>
<clipPath id="clip0_13267_628">
<rect width="30" height="30" fill="white"/>
</clipPath>
</defs>
</svg>
