<svg width="30" height="30" viewBox="0 0 30 30" fill="none" xmlns="http://www.w3.org/2000/svg">
<g clip-path="url(#clip0_13301_1309)">
<path d="M24.1997 14.1885C24.1605 14.1493 24.1139 14.1182 24.0627 14.0969C24.0114 14.0757 23.9565 14.0648 23.901 14.0648C23.8455 14.0648 23.7906 14.0757 23.7394 14.0969C23.6881 14.1182 23.6415 14.1493 23.6023 14.1885L22.3056 15.4852L22.3052 15.4847L20.8356 14.0148L20.8328 14.013L24.6966 10.149C24.792 10.0551 24.8677 9.94309 24.9194 9.81959C24.9711 9.69609 24.9977 9.56354 24.9977 9.42965C24.9977 9.15906 24.8893 8.89996 24.6966 8.71L21.3356 5.34912C20.9379 4.95244 20.2942 4.95244 19.8967 5.34912L16.0332 9.21244L14.5154 7.69445L14.5148 7.69422L15.8114 6.3976C15.8906 6.31835 15.9352 6.21087 15.9352 6.0988C15.9352 5.98673 15.8906 5.87925 15.8114 5.8L10.1348 0.123732C10.0556 0.0445066 9.94813 0 9.83607 0C9.72402 0 9.61655 0.0445066 9.5373 0.123732L5.95207 3.70873C5.87285 3.78804 5.82833 3.89553 5.82826 4.00762C5.82826 4.11953 5.87285 4.22717 5.95207 4.30633L11.6288 9.98283C11.708 10.0621 11.8155 10.1066 11.9275 10.1066C12.0396 10.1066 12.1471 10.062 12.2264 9.98283L13.7961 8.41293L13.7965 8.41363L15.3145 9.93133L12.8899 12.3559C15.2584 12.9466 17.0986 14.8104 17.6594 17.1864L20.1146 14.731L20.1164 14.7337L21.5863 16.2036L21.587 16.2038L20.0171 17.7738C19.9378 17.853 19.8933 17.9605 19.8933 18.0726C19.8933 18.1846 19.9379 18.2921 20.0171 18.3713L25.6936 24.0479C25.7328 24.0871 25.7794 24.1182 25.8307 24.1395C25.882 24.1607 25.9369 24.1716 25.9924 24.1716C26.0479 24.1716 26.1029 24.1607 26.1541 24.1395C26.2054 24.1182 26.252 24.0871 26.2913 24.0479L29.8762 20.4626C29.9554 20.3834 30 20.2759 30 20.1638C30 20.0517 29.9554 19.9443 29.8762 19.865L24.1997 14.1885ZM15.2035 14.7964C14.3444 13.9345 13.2225 13.3835 12.0152 13.2304C11.7859 13.2 11.555 13.1847 11.3237 13.1847C10.027 13.1839 8.77181 13.6414 7.77967 14.4762C7.73441 14.5144 7.69751 14.5615 7.67125 14.6146C7.64499 14.6677 7.62994 14.7256 7.62703 14.7848C7.62418 14.844 7.63357 14.9031 7.6546 14.9585C7.67563 15.0139 7.70785 15.0644 7.74926 15.1068L14.8931 22.2507C14.9355 22.2921 14.986 22.3243 15.0414 22.3453C15.0968 22.3664 15.156 22.3757 15.2152 22.3729C15.2743 22.37 15.3322 22.3549 15.3853 22.3287C15.4384 22.3024 15.4855 22.2655 15.5237 22.2203C16.3585 21.2281 16.816 19.9729 16.8152 18.6762C16.8162 18.4723 16.8042 18.2685 16.7796 18.066C16.6431 16.8281 16.0869 15.6743 15.2035 14.7965V14.7964ZM11.1864 28.983C5.57256 28.9768 1.02311 24.4274 1.01689 18.8135C1.01689 18.5327 0.789199 18.305 0.508594 18.305C0.373706 18.305 0.244343 18.3585 0.148964 18.4539C0.0535838 18.5493 0 18.6787 0 18.8136C0.00685547 24.9888 5.01111 29.9931 11.1864 29.9999C11.3213 29.9999 11.4506 29.9463 11.546 29.851C11.6414 29.7556 11.695 29.6262 11.695 29.4913C11.695 29.2105 11.4672 28.983 11.1864 28.983Z" fill="white"/>
<path d="M11.1864 25.9317C7.25673 25.9274 4.07227 22.7429 4.0677 18.8133C4.0677 18.5324 3.84018 18.3047 3.55934 18.3047C3.42446 18.3047 3.29509 18.3583 3.19971 18.4537C3.10433 18.549 3.05075 18.6784 3.05075 18.8133C3.05602 23.3041 6.69552 26.9436 11.1864 26.9489C11.3213 26.9489 11.4506 26.8953 11.546 26.7999C11.6414 26.7046 11.695 26.5752 11.695 26.4403C11.695 26.3054 11.6414 26.1761 11.546 26.0807C11.4506 25.9853 11.3213 25.9317 11.1864 25.9317Z" fill="white"/>
<path d="M11.1864 22.881C8.94105 22.8785 7.12119 21.0586 7.11867 18.8133C7.11867 18.5324 6.89092 18.3047 6.61008 18.3047C6.32924 18.3047 6.10178 18.5324 6.10178 18.8133C6.10494 21.62 8.37961 23.8947 11.1864 23.8979C11.4672 23.8979 11.695 23.6704 11.695 23.3896C11.695 23.1088 11.4672 22.881 11.1864 22.881Z" fill="white"/>
</g>
<defs>
<clipPath id="clip0_13301_1309">
<rect width="30" height="30" fill="white"/>
</clipPath>
</defs>
</svg>
