<svg width="23" height="22" viewBox="0 0 23 22" fill="none" xmlns="http://www.w3.org/2000/svg">
<path fill-rule="evenodd" clip-rule="evenodd" d="M8.19044 5C8.76903 5 9.23806 5.46904 9.23806 6.04762V8.14286C9.23806 8.72144 8.76903 9.19048 8.19044 9.19048C7.61186 9.19048 7.14282 8.72144 7.14282 8.14286V6.04762C7.14282 5.46904 7.61186 5 8.19044 5Z" stroke="#999999" stroke-width="1.3" stroke-linecap="round" stroke-linejoin="round"/>
<path d="M20.7618 7.0957H9.23804" stroke="#999999" stroke-width="1.3" stroke-linecap="round" stroke-linejoin="round"/>
<path d="M7.14286 7.0957H4" stroke="#999999" stroke-width="1.3" stroke-linecap="round" stroke-linejoin="round"/>
<path fill-rule="evenodd" clip-rule="evenodd" d="M8.19044 15.4766C8.76903 15.4766 9.23806 15.9456 9.23806 16.5242V18.6194C9.23806 19.198 8.76903 19.667 8.19044 19.667C7.61186 19.667 7.14282 19.198 7.14282 18.6194V16.5242C7.14282 15.9456 7.61186 15.4766 8.19044 15.4766Z" stroke="#999999" stroke-width="1.3" stroke-linecap="round" stroke-linejoin="round"/>
<path d="M20.7618 17.5713H9.23804" stroke="#999999" stroke-width="1.3" stroke-linecap="round" stroke-linejoin="round"/>
<path d="M7.14286 17.5713H4" stroke="#999999" stroke-width="1.3" stroke-linecap="round" stroke-linejoin="round"/>
<path fill-rule="evenodd" clip-rule="evenodd" d="M16.5715 10.2383C17.1501 10.2383 17.6192 10.7073 17.6192 11.2859V13.3811C17.6192 13.9597 17.1501 14.4288 16.5715 14.4288C15.993 14.4288 15.5239 13.9597 15.5239 13.3811V11.2859C15.5239 10.7073 15.993 10.2383 16.5715 10.2383Z" stroke="#999999" stroke-width="1.3" stroke-linecap="round" stroke-linejoin="round"/>
<path d="M15.5238 12.333H4" stroke="#999999" stroke-width="1.3" stroke-linecap="round" stroke-linejoin="round"/>
<path d="M20.762 12.333H17.6191" stroke="#999999" stroke-width="1.3" stroke-linecap="round" stroke-linejoin="round"/>
</svg>
