<svg width="30" height="30" viewBox="0 0 30 30" fill="none" xmlns="http://www.w3.org/2000/svg">
<path d="M11.1506 17.344C9.92812 16.7333 8.89717 15.798 8.17061 14.6405C7.44405 13.483 7.04989 12.148 7.03127 10.7815C7.03127 6.91762 10.3078 4.21902 15 4.21902C19.6922 4.21902 22.9688 6.91762 22.9688 10.7815C22.9502 12.148 22.556 13.483 21.8294 14.6405C21.1029 15.798 20.0719 16.7333 18.8494 17.344H21.6853C22.7626 16.2467 23.5533 14.9011 23.9877 13.426C24.4221 11.9509 24.4868 10.3916 24.1763 8.88557C23.8657 7.37953 23.1893 5.97304 22.2068 4.79013C21.2243 3.60723 19.9658 2.68425 18.5423 2.1026C17.1188 1.52094 15.5741 1.29848 14.0443 1.45482C12.5146 1.61116 11.0468 2.14151 9.77039 2.9991C8.494 3.85668 7.44823 5.01516 6.72531 6.37236C6.00239 7.72956 5.62452 9.24379 5.62502 10.7815C5.61943 13.2385 6.58641 15.5977 8.31471 17.344H11.1506Z" fill="white"/>
<path d="M22.0312 10.7812C22.0312 6.89578 18.4997 5.15625 15 5.15625C11.5003 5.15625 7.96875 6.89578 7.96875 10.7812C7.96875 14.4 11.123 17.3438 15 17.3438C18.877 17.3438 22.0312 14.4 22.0312 10.7812ZM15 7.03125V6.09375C18.5306 6.09375 21.0938 8.15859 21.0938 11.0034H20.1562C20.1562 8.66438 18.0361 7.03125 15 7.03125Z" fill="white"/>
<path d="M23.4375 18.2812H6.5625C6.30362 18.2812 6.09375 18.4911 6.09375 18.75V19.6875C6.09375 19.9464 6.30362 20.1562 6.5625 20.1562H23.4375C23.6964 20.1562 23.9062 19.9464 23.9062 19.6875V18.75C23.9062 18.4911 23.6964 18.2812 23.4375 18.2812Z" fill="white"/>
<path d="M28.5816 28.5938C28.4966 26.978 27.9599 25.4185 27.0325 24.0927C26.1052 22.7668 24.8244 21.7278 23.3358 21.0938H6.66424C5.17565 21.7278 3.89485 22.7668 2.9675 24.0927C2.04015 25.4185 1.50345 26.978 1.41846 28.5938H7.03127V27.1875C7.03239 26.3176 7.37845 25.4837 7.99356 24.8685C8.60867 24.2534 9.44262 23.9074 10.3125 23.9062H19.6875C20.5574 23.9074 21.3914 24.2534 22.0065 24.8685C22.6216 25.4837 22.9677 26.3176 22.9688 27.1875V28.5938H28.5816ZM4.21877 13.125H4.96361C4.59691 11.5842 4.59547 9.97898 4.95939 8.4375H4.21877C3.97013 8.4375 3.73167 8.53627 3.55586 8.71209C3.38004 8.8879 3.28127 9.12636 3.28127 9.375V12.1875C3.28127 12.4361 3.38004 12.6746 3.55586 12.8504C3.73167 13.0262 3.97013 13.125 4.21877 13.125ZM25.7813 13.125C26.0299 13.125 26.2684 13.0262 26.4442 12.8504C26.62 12.6746 26.7188 12.4361 26.7188 12.1875V9.375C26.7188 9.12636 26.62 8.8879 26.4442 8.71209C26.2684 8.53627 26.0299 8.4375 25.7813 8.4375H25.0406C25.4046 9.97898 25.4031 11.5842 25.0364 13.125H25.7813Z" fill="white"/>
<path d="M19.6875 24.8438H10.3125C9.69113 24.8445 9.09542 25.0917 8.65604 25.531C8.21666 25.9704 7.96949 26.5661 7.96875 27.1875V28.5938H22.0312V27.1875C22.0305 26.5661 21.7833 25.9704 21.344 25.531C20.9046 25.0917 20.3089 24.8445 19.6875 24.8438Z" fill="white"/>
</svg>
