<svg width="30" height="30" viewBox="0 0 30 30" fill="none" xmlns="http://www.w3.org/2000/svg">
<path d="M24.488 20.6134C24.7158 20.3587 24.8424 20.0294 24.8438 19.6877V18.7502C24.8438 18.3772 24.6956 18.0195 24.4319 17.7558C24.1682 17.4921 23.8105 17.3439 23.4375 17.3439H22.9538C23.7581 16.3722 24.3749 15.2596 24.773 14.0627H25.7813C26.2785 14.0627 26.7555 13.8651 27.1071 13.5135C27.4587 13.1618 27.6563 12.6849 27.6563 12.1877V9.37515C27.6563 8.87787 27.4587 8.40096 27.1071 8.04933C26.7555 7.6977 26.2785 7.50015 25.7813 7.50015H24.7744C24.0868 5.45255 22.7736 3.6726 21.0199 2.41158C19.2663 1.15056 17.1609 0.472168 15.0009 0.472168C12.841 0.472168 10.7356 1.15056 8.98196 2.41158C7.22833 3.6726 5.91505 5.45255 5.22751 7.50015H4.21876C3.72148 7.50015 3.24457 7.6977 2.89293 8.04933C2.5413 8.40096 2.34376 8.87787 2.34376 9.37515V12.1877C2.34376 12.6849 2.5413 13.1618 2.89293 13.5135C3.24457 13.8651 3.72148 14.0627 4.21876 14.0627H5.22704C5.62508 15.2596 6.24194 16.3722 7.04626 17.3439H6.56251C6.18955 17.3439 5.83186 17.4921 5.56814 17.7558C5.30442 18.0195 5.15626 18.3772 5.15626 18.7502V19.6877C5.15762 20.0294 5.2842 20.3587 5.51204 20.6134C3.98562 21.4337 2.71038 22.6528 1.82223 24.1408C0.934077 25.6287 0.466302 27.3298 0.46876 29.0627C0.46876 29.187 0.518146 29.3062 0.606053 29.3941C0.693961 29.482 0.813189 29.5314 0.93751 29.5314H29.0625C29.1868 29.5314 29.3061 29.482 29.394 29.3941C29.4819 29.3062 29.5313 29.187 29.5313 29.0627C29.5337 27.3298 29.0659 25.6287 28.1778 24.1408C27.2896 22.6528 26.0144 21.4337 24.488 20.6134ZM25.7813 8.43765C26.0299 8.43765 26.2684 8.53642 26.4442 8.71224C26.62 8.88805 26.7188 9.12651 26.7188 9.37515V12.1877C26.7188 12.4363 26.62 12.6747 26.4442 12.8506C26.2684 13.0264 26.0299 13.1252 25.7813 13.1252H25.0364C25.4031 11.5843 25.4046 9.97913 25.0406 8.43765H25.7813ZM4.21876 13.1252C3.97012 13.1252 3.73166 13.0264 3.55585 12.8506C3.38003 12.6747 3.28126 12.4363 3.28126 12.1877V9.37515C3.28126 9.12651 3.38003 8.88805 3.55585 8.71224C3.73166 8.53642 3.97012 8.43765 4.21876 8.43765H4.95938C4.59546 9.97913 4.5969 11.5843 4.9636 13.1252H4.21876ZM5.62501 10.7814C5.62338 9.24263 6.00053 7.72711 6.7232 6.36859C7.44587 5.01007 8.49182 3.85032 9.76876 2.99169C11.0457 2.13305 12.5144 1.60193 14.0451 1.4452C15.5759 1.28847 17.1217 1.51095 18.5462 2.093C19.9706 2.67505 21.2299 3.59878 22.2128 4.78267C23.1958 5.96655 23.8723 7.37419 24.1825 8.88137C24.4927 10.3885 24.4272 11.9489 23.9917 13.4248C23.5562 14.9006 22.7641 16.2466 21.6853 17.3439H18.8494C20.0719 16.7331 21.1029 15.7978 21.8294 14.6404C22.556 13.4829 22.9501 12.1479 22.9688 10.7814C22.9688 6.9175 19.6922 4.2189 15 4.2189C10.3078 4.2189 7.03126 6.9175 7.03126 10.7814C7.04988 12.1479 7.44404 13.4829 8.1706 14.6404C8.89715 15.7978 9.92811 16.7331 11.1506 17.3439H8.3147C6.58639 15.5976 5.61942 13.2383 5.62501 10.7814ZM15 17.3439C11.123 17.3439 7.96876 14.4002 7.96876 10.7814C7.96876 6.89593 11.5003 5.1564 15 5.1564C18.4997 5.1564 22.0313 6.89593 22.0313 10.7814C22.0313 14.4002 18.877 17.3439 15 17.3439ZM6.09376 18.7502C6.09376 18.6258 6.14315 18.5066 6.23105 18.4187C6.31896 18.3308 6.43819 18.2814 6.56251 18.2814H23.4375C23.5618 18.2814 23.6811 18.3308 23.769 18.4187C23.8569 18.5066 23.9063 18.6258 23.9063 18.7502V19.6877C23.9063 19.812 23.8569 19.9312 23.769 20.0191C23.6811 20.107 23.5618 20.1564 23.4375 20.1564H6.56251C6.43819 20.1564 6.31896 20.107 6.23105 20.0191C6.14315 19.9312 6.09376 19.812 6.09376 19.6877V18.7502ZM22.0313 28.5939H7.96876V27.1877C7.9695 26.5663 8.21667 25.9706 8.65605 25.5312C9.09543 25.0918 9.69114 24.8446 10.3125 24.8439H19.6875C20.3089 24.8446 20.9046 25.0918 21.344 25.5312C21.7833 25.9706 22.0305 26.5663 22.0313 27.1877V28.5939ZM22.9688 28.5939V27.1877C22.9676 26.3178 22.6216 25.4838 22.0065 24.8687C21.3914 24.2536 20.5574 23.9075 19.6875 23.9064H10.3125C9.44261 23.9075 8.60866 24.2536 7.99355 24.8687C7.37844 25.4838 7.03238 26.3178 7.03126 27.1877V28.5939H1.41845C1.50344 26.9781 2.04014 25.4187 2.96749 24.0928C3.89484 22.767 5.17564 21.7279 6.66423 21.0939H23.3358C24.8244 21.7279 26.1052 22.767 27.0325 24.0928C27.9599 25.4187 28.4966 26.9781 28.5816 28.5939H22.9688Z" fill="#BABABA"/>
<path d="M15 6.09375V7.03125C18.0361 7.03125 20.1562 8.66438 20.1562 11.0034H21.0938C21.0938 8.15859 18.5306 6.09375 15 6.09375Z" fill="#BABABA"/>
</svg>
