<svg width="19" height="18" viewBox="0 0 19 18" fill="none" xmlns="http://www.w3.org/2000/svg">
<path d="M7.19037 10.4062C6.45686 10.0397 5.83828 9.47853 5.40235 8.78405C4.96642 8.08957 4.72992 7.28856 4.71875 6.46867C4.71875 4.15033 6.68469 2.53117 9.5 2.53117C12.3153 2.53117 14.2812 4.15033 14.2812 6.46867C14.2701 7.28856 14.0336 8.08957 13.5976 8.78405C13.1617 9.47853 12.5431 10.0397 11.8096 10.4062H13.5112C14.1575 9.74776 14.6319 8.94043 14.8926 8.05537C15.1532 7.17031 15.1921 6.23472 15.0057 5.3311C14.8194 4.42747 14.4136 3.58358 13.8241 2.87384C13.2345 2.16409 12.4795 1.61031 11.6254 1.26131C10.7713 0.91232 9.84444 0.778841 8.92658 0.872647C8.00872 0.966453 7.12805 1.28466 6.36222 1.79921C5.59638 2.31376 4.96892 3.00885 4.53517 3.82317C4.10142 4.63749 3.8747 5.54603 3.875 6.46867C3.87164 7.94283 4.45183 9.3584 5.48881 10.4062H7.19037Z" fill="white"/>
<path d="M13.7188 6.46875C13.7188 4.13747 11.5998 3.09375 9.5 3.09375C7.40019 3.09375 5.28125 4.13747 5.28125 6.46875C5.28125 8.64 7.17378 10.4062 9.5 10.4062C11.8262 10.4062 13.7188 8.64 13.7188 6.46875ZM9.5 4.21875V3.65625C11.6184 3.65625 13.1562 4.89516 13.1562 6.60206H12.5938C12.5938 5.19863 11.3217 4.21875 9.5 4.21875Z" fill="white"/>
<path d="M14.5625 10.9688H4.4375C4.28217 10.9688 4.15625 11.0947 4.15625 11.25V11.8125C4.15625 11.9678 4.28217 12.0938 4.4375 12.0938H14.5625C14.7178 12.0938 14.8438 11.9678 14.8438 11.8125V11.25C14.8438 11.0947 14.7178 10.9688 14.5625 10.9688Z" fill="white"/>
<path d="M17.6489 17.1562C17.5979 16.1868 17.2759 15.2511 16.7195 14.4556C16.1631 13.6601 15.3946 13.0367 14.5015 12.6562H4.49853C3.60538 13.0367 2.8369 13.6601 2.28049 14.4556C1.72407 15.2511 1.40206 16.1868 1.35106 17.1562H4.71875V16.3125C4.71942 15.7906 4.92705 15.2902 5.29612 14.9211C5.66519 14.5521 6.16556 14.3444 6.6875 14.3438H12.3125C12.8344 14.3444 13.3348 14.5521 13.7039 14.9211C14.0729 15.2902 14.2806 15.7906 14.2812 16.3125V17.1562H17.6489ZM3.03125 7.875H3.47815C3.25813 6.95051 3.25727 5.98739 3.47562 5.0625H3.03125C2.88206 5.0625 2.73899 5.12176 2.6335 5.22725C2.52801 5.33274 2.46875 5.47582 2.46875 5.625V7.3125C2.46875 7.46168 2.52801 7.60476 2.6335 7.71025C2.73899 7.81574 2.88206 7.875 3.03125 7.875ZM15.9687 7.875C16.1179 7.875 16.261 7.81574 16.3665 7.71025C16.472 7.60476 16.5312 7.46168 16.5312 7.3125V5.625C16.5312 5.47582 16.472 5.33274 16.3665 5.22725C16.261 5.12176 16.1179 5.0625 15.9687 5.0625H15.5244C15.7427 5.98739 15.7419 6.95051 15.5218 7.875H15.9687Z" fill="white"/>
<path d="M12.3125 14.9062H6.6875C6.31468 14.9067 5.95725 15.055 5.69362 15.3186C5.43 15.5823 5.2817 15.9397 5.28125 16.3125V17.1562H13.7188V16.3125C13.7183 15.9397 13.57 15.5823 13.3064 15.3186C13.0427 15.055 12.6853 14.9067 12.3125 14.9062Z" fill="white"/>
</svg>
