<svg width="28" height="29" viewBox="0 0 28 29" fill="none" xmlns="http://www.w3.org/2000/svg">
<path d="M14.0002 1.88379C6.91985 1.88379 1.15969 7.64395 1.15969 14.7243C1.15969 21.8047 6.91985 27.5648 14.0002 27.5648C21.0806 27.5648 26.8407 21.8047 26.8407 14.7243C26.8407 7.64395 21.0806 1.88379 14.0002 1.88379ZM5.64249 11.0678C5.79761 11.0678 5.94349 11.1056 6.07313 11.1711C6.17796 11.2606 6.26212 11.3717 6.31979 11.4969C6.37747 11.622 6.40728 11.7582 6.40717 11.896C6.4071 12.1494 6.30642 12.3923 6.12727 12.5715C5.94812 12.7506 5.70517 12.8513 5.45181 12.8514C5.30214 12.8513 5.15459 12.8159 5.02117 12.7481C4.91641 12.6586 4.8323 12.5474 4.77464 12.4222C4.71697 12.2971 4.68712 12.1609 4.68713 12.0231C4.68721 11.7698 4.78788 11.5268 4.96703 11.3477C5.14618 11.1685 5.38914 11.0679 5.64249 11.0678ZM5.83317 18.3654C5.59954 18.3657 5.36967 18.3066 5.16509 18.1938C4.89269 17.9783 4.71124 17.6683 4.65673 17.3252C4.60221 16.9822 4.67862 16.6312 4.87079 16.3419C5.06297 16.0525 5.35687 15.846 5.6942 15.7632C6.03153 15.6804 6.38765 15.7275 6.69193 15.895C6.91741 16.0734 7.08176 16.3176 7.16217 16.5936C7.24258 16.8696 7.23506 17.1639 7.14066 17.4355C7.04625 17.707 6.86965 17.9425 6.63535 18.1091C6.40105 18.2758 6.12069 18.3654 5.83317 18.3654ZM7.80353 12.3647C7.74865 12.3647 7.69629 12.3549 7.64729 12.3376C7.57767 12.2602 7.53577 12.1619 7.5282 12.0581C7.52063 11.9543 7.54781 11.851 7.60548 11.7643C7.66314 11.6777 7.74799 11.6127 7.84667 11.5796C7.94534 11.5465 8.05222 11.5472 8.15045 11.5816C8.21126 11.6488 8.25128 11.7322 8.26565 11.8217C8.28001 11.9112 8.26812 12.003 8.23141 12.0859C8.19469 12.1688 8.13473 12.2392 8.05879 12.2887C7.98285 12.3382 7.89418 12.3646 7.80353 12.3647ZM7.80353 10.307C7.45326 10.3074 7.10927 10.214 6.80729 10.0365C6.40672 9.73345 6.13703 9.28881 6.05336 8.79351C5.96969 8.29821 6.07834 7.78965 6.35712 7.37179C6.6359 6.95392 7.06374 6.65831 7.5532 6.54538C8.04266 6.43244 8.55677 6.51071 8.99045 6.76419C9.32003 7.01303 9.56309 7.35914 9.6853 7.75362C9.8075 8.1481 9.80266 8.571 9.67148 8.96259C9.54029 9.35417 9.28938 9.69463 8.9542 9.93588C8.61901 10.1771 8.2165 10.307 7.80353 10.307ZM12.1253 7.71227C11.9551 7.71227 11.7952 7.67027 11.6538 7.59719C11.462 7.43387 11.3367 7.2058 11.302 6.95626C11.2672 6.70673 11.3252 6.4531 11.4651 6.24353C11.6049 6.03397 11.8169 5.88305 12.0607 5.81943C12.3044 5.75581 12.5631 5.78392 12.7875 5.89843C12.9485 6.03432 13.0639 6.2164 13.118 6.42001C13.1721 6.62362 13.1624 6.83895 13.0901 7.03684C13.0178 7.23474 12.8865 7.40565 12.7139 7.52645C12.5413 7.64726 12.336 7.71212 12.1253 7.71227ZM23.8834 18.8473C23.8285 18.8473 23.7761 18.8375 23.7271 18.8201C23.6578 18.7427 23.6161 18.6445 23.6087 18.5408C23.6012 18.4371 23.6284 18.3339 23.686 18.2473C23.7436 18.1608 23.8283 18.0959 23.9268 18.0627C24.0254 18.0295 24.1321 18.0301 24.2303 18.0641C24.2911 18.1314 24.3311 18.2148 24.3455 18.3043C24.3599 18.3938 24.348 18.4855 24.3112 18.5684C24.2745 18.6513 24.2146 18.7218 24.1386 18.7713C24.0627 18.8208 23.974 18.8472 23.8834 18.8473ZM23.8834 16.6541C23.77 16.6541 23.6627 16.6283 23.5661 16.5835C23.4885 16.513 23.4265 16.4271 23.3841 16.3312C23.3417 16.2354 23.3197 16.1317 23.3197 16.0269C23.3198 15.9002 23.3518 15.7757 23.4127 15.6646C23.4736 15.5536 23.5615 15.4597 23.6683 15.3916C23.775 15.3235 23.8972 15.2833 24.0236 15.2748C24.1499 15.2664 24.2764 15.2898 24.3913 15.3431C24.5425 15.4811 24.6377 15.6788 24.6377 15.8997C24.6377 15.9988 24.6182 16.0969 24.5803 16.1884C24.5424 16.2799 24.4868 16.3631 24.4168 16.4331C24.3467 16.5032 24.2636 16.5587 24.172 16.5967C24.0805 16.6346 23.9824 16.6541 23.8834 16.6541Z" fill="white"/>
</svg>
