<svg width="32" height="32" viewBox="0 0 32 32" fill="none" xmlns="http://www.w3.org/2000/svg">
<path d="M14.5988 21.2247C12.1817 21.2247 10.2994 20.5298 9.0017 19.1584C7.14684 17.1972 6.99713 14.3664 7.01884 13.2407C7.02513 12.9258 7.30741 12.6687 7.59884 12.6807C10.5017 12.7235 12.6423 13.5515 13.9611 15.1424C15.5863 17.1029 15.492 19.6938 15.3766 20.7167C15.3608 20.8545 15.2955 20.982 15.1928 21.0753C15.0901 21.1687 14.957 21.2215 14.8183 21.2241L14.5988 21.2247ZM8.16913 13.8435C8.21998 15.0212 8.51884 16.9847 9.83198 18.3721C10.8497 19.4487 12.3451 20.0212 14.2811 20.0767C14.3314 19.0218 14.2131 17.2355 13.0811 15.8704C12.0714 14.6532 10.4206 13.9721 8.16913 13.8435ZM17.4011 21.2247L17.1823 21.2229C17.0436 21.2205 16.9105 21.1678 16.8078 21.0745C16.7051 20.9813 16.6398 20.8539 16.624 20.7161C16.5074 19.6927 16.4131 17.1024 18.0388 15.1412C19.3583 13.5509 21.4983 12.7229 24.4011 12.6801C24.7103 12.6681 24.9743 12.9258 24.9811 13.2401C25.0028 14.3664 24.8531 17.1972 22.9983 19.1578C21.7006 20.5298 19.8183 21.2247 17.4011 21.2247ZM18.9183 15.8704C17.7868 17.2361 17.668 19.0224 17.7188 20.0767C19.6543 20.0207 21.1491 19.4481 22.1674 18.3721C23.4806 16.9841 23.7794 15.0212 23.8303 13.8435C21.58 13.9721 19.9286 14.6532 18.9183 15.8704Z" fill="white"/>
<path d="M16 29.2527C15.2562 29.2548 14.5293 29.031 13.9154 28.611C11.3069 26.8225 5.23828 21.7762 5.23828 13.5607C5.23828 10.2727 6.21828 7.64817 8.15142 5.7596C11.3611 2.62303 15.972 2.74874 16.02 2.74874C16.1777 2.74702 20.6629 2.64645 23.8497 5.7596C25.7823 7.6476 26.7623 10.2722 26.7623 13.5607C26.7623 21.775 20.6943 26.8219 18.0851 28.611C17.4711 29.0312 16.744 29.2549 16 29.2527ZM15.9263 3.89045C15.2983 3.89045 11.5886 3.99903 8.95028 6.57731C7.24571 8.24303 6.38114 10.5922 6.38114 13.5613C6.38114 21.2333 12.1023 25.9825 14.5617 27.6687C15.4051 28.247 16.5954 28.247 17.4389 27.6687C19.8989 25.983 25.6189 21.2322 25.6189 13.5613C25.6189 10.5922 24.7543 8.24245 23.0503 6.57731C20.208 3.80017 16.0589 3.89445 16.0171 3.8916C16.0109 3.8916 15.9794 3.89045 15.9263 3.89045Z" fill="white"/>
<path d="M15.9966 25.5316C15.4101 25.5329 14.837 25.3561 14.3531 25.0248C14.228 24.9392 14.1421 24.8073 14.1141 24.6583C14.0862 24.5093 14.1187 24.3553 14.2043 24.2302C14.2899 24.1051 14.4217 24.0191 14.5707 23.9912C14.7197 23.9633 14.8737 23.9957 14.9989 24.0814C15.293 24.2826 15.6413 24.3896 15.9977 24.3882H16C16.3623 24.3882 16.7086 24.2819 17.0023 24.0814C17.1274 23.9958 17.2814 23.9635 17.4303 23.9914C17.5793 24.0194 17.711 24.1054 17.7966 24.2305C17.8821 24.3556 17.9145 24.5096 17.8865 24.6585C17.8585 24.8075 17.7725 24.9392 17.6474 25.0248C17.1624 25.3566 16.5882 25.5333 16.0006 25.5316H15.9966Z" fill="white"/>
</svg>
