<svg width="20" height="21" viewBox="0 0 20 21" fill="none" xmlns="http://www.w3.org/2000/svg">
<path d="M10 15.2826C12.6464 15.2826 14.7917 13.1373 14.7917 10.4909C14.7917 7.84452 12.6464 5.69922 10 5.69922C7.35364 5.69922 5.20834 7.84452 5.20834 10.4909C5.20834 13.1373 7.35364 15.2826 10 15.2826Z" fill="white"/>
<path d="M16.0417 6.74154C17.3073 6.74154 18.3333 5.71552 18.3333 4.44987C18.3333 3.18422 17.3073 2.1582 16.0417 2.1582C14.776 2.1582 13.75 3.18422 13.75 4.44987C13.75 5.71552 14.776 6.74154 16.0417 6.74154Z" fill="white"/>
<path fill-rule="evenodd" clip-rule="evenodd" d="M15.2458 2.72205C13.6976 1.6732 11.87 1.11374 10 1.11622C4.82583 1.11622 0.625 5.31705 0.625 10.4912C0.625 15.6654 4.82583 19.8662 10 19.8662C15.1742 19.8662 19.375 15.6654 19.375 10.4912C19.375 8.54789 18.7825 6.74289 17.7692 5.24539C17.7168 5.16784 17.6477 5.10304 17.5669 5.05578C17.4861 5.00852 17.3958 4.97999 17.3025 4.97231C17.2093 4.96464 17.1155 4.978 17.0281 5.01141C16.9406 5.04483 16.8619 5.09745 16.7975 5.16539C16.7022 5.26811 16.5872 5.35056 16.4593 5.4078C16.3314 5.46503 16.1933 5.49588 16.0532 5.49849C15.9131 5.50111 15.7739 5.47543 15.644 5.423C15.5141 5.37057 15.396 5.29247 15.297 5.19337C15.198 5.09427 15.1199 4.9762 15.0676 4.84624C15.0152 4.71627 14.9896 4.57708 14.9923 4.437C14.995 4.29691 15.0259 4.1588 15.0832 4.03095C15.1405 3.90309 15.2231 3.78811 15.3258 3.69289C15.394 3.62877 15.4469 3.55009 15.4805 3.4627C15.5141 3.37532 15.5276 3.28149 15.5199 3.18818C15.5122 3.09488 15.4836 3.00451 15.4361 2.92381C15.3887 2.8431 15.3236 2.77414 15.2458 2.72205ZM13.9958 3.41622C13.7786 3.84703 13.7028 4.3354 13.7793 4.81178C13.8558 5.28816 14.0806 5.72827 14.4218 6.06944C14.7629 6.4106 15.2031 6.63543 15.6794 6.71191C16.1558 6.78839 16.6442 6.71262 17.075 6.49539C17.7653 7.71387 18.1271 9.0908 18.125 10.4912C18.125 14.9754 14.4842 18.6162 10 18.6162C5.51583 18.6162 1.875 14.9754 1.875 10.4912C1.875 6.00705 5.51583 2.36622 10 2.36622C11.4517 2.36622 12.8158 2.74789 13.9958 3.41622Z" fill="white"/>
</svg>
