<svg width="19" height="18" viewBox="0 0 19 18" fill="none" xmlns="http://www.w3.org/2000/svg">
<path d="M14.5625 6.75H14V4.5C14 2.01825 11.9818 0 9.5 0C7.01825 0 5 2.01825 5 4.5V6.75H4.4375C3.99013 6.7506 3.56125 6.92858 3.24491 7.24492C2.92858 7.56125 2.7506 7.99013 2.75 8.4375V16.3125C2.75 17.2432 3.5075 18 4.4375 18H14.5625C15.4925 18 16.25 17.2432 16.25 16.3125V8.4375C16.25 7.50675 15.4925 6.75 14.5625 6.75ZM6.5 4.5C6.5 2.8455 7.8455 1.5 9.5 1.5C11.1545 1.5 12.5 2.8455 12.5 4.5V6.75H6.5V4.5ZM10.25 12.5415V14.25C10.25 14.4489 10.171 14.6397 10.0303 14.7803C9.88968 14.921 9.69891 15 9.5 15C9.30109 15 9.11032 14.921 8.96967 14.7803C8.82902 14.6397 8.75 14.4489 8.75 14.25V12.5415C8.30375 12.2812 8 11.8027 8 11.25C8 10.4227 8.67275 9.75 9.5 9.75C10.3273 9.75 11 10.4227 11 11.25C11 11.8027 10.6962 12.2812 10.25 12.5415Z" fill="#E9E9E9"/>
</svg>
