<svg width="17" height="17" viewBox="0 0 17 17" fill="none" xmlns="http://www.w3.org/2000/svg">
<g clip-path="url(#clip0_12926_1829)">
<path d="M0.988609 5.86768L6.29445 6.33189C7.81148 6.46461 9.3372 6.46461 10.8542 6.33189L16.1601 5.86768" stroke="white" stroke-width="0.644531" stroke-miterlimit="10" stroke-linecap="round" stroke-linejoin="round"/>
<path d="M3.60439 6.13037V9.67025C3.60439 12.4151 5.82951 14.6402 8.57435 14.6402C11.3192 14.6402 13.5443 12.4151 13.5443 9.67025V6.13037M8.57435 6.53131V10.9781" stroke="white" stroke-width="0.644531" stroke-miterlimit="10" stroke-linecap="round" stroke-linejoin="round"/>
<path d="M14.5906 8.00007L16.2001 6.26682C16.44 6.0085 16.3609 5.59172 16.0431 5.43919L10.9497 2.99441C10.7042 2.87653 10.4322 2.8246 10.1604 2.84371C9.88872 2.86283 9.62665 2.95234 9.40001 3.10344L9.00967 3.36369C8.88076 3.44962 8.7293 3.49548 8.57437 3.49548C8.41945 3.49548 8.26799 3.44962 8.13908 3.36369L7.74873 3.10344C7.52209 2.95234 7.26003 2.86284 6.98831 2.84372C6.71659 2.8246 6.44458 2.87653 6.19902 2.99441L1.10561 5.43922C0.787828 5.59175 0.708766 6.0085 0.948641 6.26685L2.55808 8.0001" stroke="white" stroke-width="0.644531" stroke-miterlimit="10" stroke-linecap="round" stroke-linejoin="round"/>
</g>
<defs>
<clipPath id="clip0_12926_1829">
<rect width="16" height="16" fill="white" transform="translate(0.574356 0.739746)"/>
</clipPath>
</defs>
</svg>
