<svg width="17" height="17" viewBox="0 0 17 17" fill="none" xmlns="http://www.w3.org/2000/svg">
<g clip-path="url(#clip0_12521_3299)">
<path d="M14.5513 10.2644L14.5399 10.1079C14.3567 7.72189 13.2457 6.22616 12.2656 4.90687C11.3581 3.68523 10.5743 2.63027 10.5743 1.07367C10.5743 0.948671 10.5043 0.834426 10.3933 0.777115C10.2819 0.719492 10.1482 0.728929 10.0469 0.80252C8.575 1.85586 7.34685 3.6312 6.91784 5.32513C6.62001 6.50447 6.5806 7.83026 6.57507 8.70588C5.21575 8.41552 4.90782 6.38206 4.90457 6.35994C4.89705 6.308 4.87743 6.25854 4.8473 6.21557C4.81716 6.1726 4.77735 6.13731 4.73108 6.11254C4.63636 6.06308 4.52502 6.05948 4.42899 6.10701C4.35771 6.14151 2.67937 6.99435 2.58172 10.3998C2.57487 10.5131 2.57456 10.6264 2.57456 10.74C2.57456 14.0481 5.26618 16.7397 8.57434 16.7397C11.8825 16.7397 14.5741 14.0481 14.5741 10.74C14.5741 10.574 14.5627 10.419 14.5513 10.2644ZM8.57434 16.0731C7.47151 16.0731 6.57441 15.1174 6.57441 13.9427C6.57441 13.9026 6.5741 13.8623 6.57701 13.8128C6.59035 13.3174 6.68444 12.9792 6.78762 12.7542C6.98099 13.1696 7.32698 13.5514 7.88818 13.5514C7.93196 13.5514 7.97532 13.5428 8.01577 13.5261C8.05623 13.5093 8.09298 13.4848 8.12394 13.4538C8.1549 13.4229 8.17945 13.3861 8.19619 13.3457C8.21293 13.3052 8.22154 13.2618 8.22151 13.2181C8.22151 12.7435 8.23129 12.196 8.34944 11.7018C8.45459 11.2634 8.70587 10.7976 9.02423 10.4239C9.16582 10.9089 9.44187 11.3014 9.71139 11.6846C10.0971 12.2328 10.4959 12.7994 10.5659 13.7659C10.5701 13.8232 10.5743 13.8808 10.5743 13.9426C10.5743 15.1174 9.67717 16.0731 8.57434 16.0731ZM10.6809 15.6376C11.0269 15.1658 11.2409 14.5825 11.2409 13.9427C11.2409 13.8642 11.2361 13.7913 11.2263 13.6549C11.1472 12.5667 10.6742 11.8942 10.2566 11.3008C9.90082 10.7956 9.59386 10.3592 9.59386 9.74003C9.59386 9.61341 9.52224 9.49785 9.40896 9.44154C9.35352 9.4138 9.29141 9.40215 9.22968 9.40791C9.16794 9.41366 9.10906 9.43659 9.0597 9.4741C8.42041 9.95715 7.88721 10.7703 7.70103 11.5466C7.60597 11.9447 7.57278 12.3754 7.56106 12.7295C7.32995 12.4808 7.25833 12.0199 7.2577 12.0137C7.25036 11.9609 7.23049 11.9107 7.19974 11.8671C7.16899 11.8236 7.12826 11.788 7.08096 11.7634C6.98559 11.714 6.87134 11.7126 6.77531 11.7621C6.69132 11.8051 5.95341 12.2283 5.91109 13.7848C5.90816 13.8376 5.90784 13.8903 5.90784 13.9427C5.90784 14.5826 6.1219 15.1658 6.46789 15.6376C4.57221 14.8191 3.24129 12.9326 3.24129 10.74C3.24129 10.6401 3.24097 10.5405 3.24779 10.4295C3.30507 8.43149 3.94439 7.44065 4.36168 7.00351C4.65267 8.04513 5.41502 9.40673 6.90781 9.40673C6.95159 9.40676 6.99495 9.39816 7.0354 9.38142C7.07586 9.36468 7.11261 9.34013 7.14357 9.30917C7.17453 9.27821 7.19908 9.24145 7.21582 9.201C7.23257 9.16054 7.24117 9.11718 7.24114 9.0734C7.24114 7.95788 7.2662 6.66887 7.56438 5.48856C7.9029 4.15136 8.83027 2.70742 9.94969 1.72992C10.1356 3.15762 10.9132 4.20446 11.7306 5.30432C12.7022 6.61221 13.7067 7.96469 13.875 10.1547L13.8864 10.3142C13.8968 10.4529 13.9076 10.5913 13.9076 10.74C13.9075 12.9326 12.5766 14.819 10.6809 15.6376Z" fill="white"/>
</g>
<defs>
<clipPath id="clip0_12521_3299">
<rect width="16" height="16" fill="white" transform="translate(0.574356 0.739746)"/>
</clipPath>
</defs>
</svg>
