<svg width="17" height="17" viewBox="0 0 17 17" fill="none" xmlns="http://www.w3.org/2000/svg">
<g clip-path="url(#clip0_12521_3307)">
<path d="M12.2437 16.7384C11.8074 16.7392 11.3762 16.6445 10.9804 16.4608C10.5847 16.2771 10.234 16.0089 9.95302 15.6751C9.92392 15.6418 9.90175 15.603 9.88779 15.561C9.87383 15.519 9.86837 15.4747 9.87173 15.4305C9.87508 15.3864 9.88718 15.3434 9.90733 15.304C9.92748 15.2646 9.95526 15.2297 9.98907 15.2011C10.0229 15.1726 10.062 15.1511 10.1042 15.1378C10.1464 15.1245 10.1909 15.1198 10.2349 15.1239C10.279 15.128 10.3218 15.1408 10.3608 15.1616C10.3999 15.1824 10.4344 15.2108 10.4624 15.2451C11.0364 15.9257 11.9377 16.2144 12.8157 16.0031C13.635 15.8124 14.3124 15.1384 14.5024 14.3244C14.7857 13.1464 14.185 11.9871 13.075 11.5651C12.5117 11.3524 12.1144 10.8297 12.0364 10.2011C11.687 7.15975 11.0944 4.70775 10.1724 2.48108C9.91236 1.83708 9.27036 1.40641 8.57436 1.40641C7.87836 1.40641 7.23636 1.83708 6.97636 2.47841C6.05369 4.70708 5.46102 7.15908 5.11236 10.1977C5.03436 10.8291 4.63636 11.3517 4.07236 11.5651C2.96302 11.9864 2.36302 13.1464 2.64502 14.3224C2.83569 15.1377 3.51302 15.8117 4.32902 16.0024C5.21102 16.2151 6.11236 15.9251 6.68569 15.2451C6.74321 15.1792 6.8243 15.1386 6.91149 15.132C6.99868 15.1253 7.08498 15.1532 7.1518 15.2096C7.21861 15.266 7.26058 15.3464 7.26867 15.4335C7.27676 15.5206 7.25031 15.6073 7.19502 15.6751C6.45769 16.5504 5.30036 16.9244 4.17502 16.6504C3.64616 16.525 3.16245 16.2553 2.7777 15.8714C2.39295 15.4875 2.12224 15.0043 1.99569 14.4757C1.63436 12.9711 2.40769 11.4844 3.83569 10.9417C4.16769 10.8164 4.40302 10.5011 4.44969 10.1191C4.80636 7.01975 5.41302 4.51108 6.35969 2.22575C6.71969 1.33775 7.61036 0.739746 8.57436 0.739746C9.53836 0.739746 10.429 1.33775 10.7897 2.22775C11.7357 4.51108 12.3424 7.01975 12.699 10.1217C12.745 10.5011 12.9804 10.8164 13.3117 10.9411C14.7404 11.4837 15.5137 12.9711 15.1517 14.4777C15.0248 15.0064 14.7537 15.4894 14.3686 15.8731C13.9834 16.2568 13.4994 16.5261 12.9704 16.6511C12.7325 16.7089 12.4885 16.7382 12.2437 16.7384Z" fill="white"/>
<path d="M8.57436 16.7399C8.21178 16.7403 7.85473 16.651 7.53507 16.4799C7.2154 16.3088 6.94307 16.0612 6.74236 15.7592L6.51836 15.4232C6.3783 15.2129 6.18838 15.0404 5.96552 14.9211C5.74266 14.8019 5.49377 14.7397 5.24102 14.7399H4.90769C4.81928 14.7399 4.7345 14.7048 4.67199 14.6423C4.60948 14.5798 4.57436 14.495 4.57436 14.4066C4.57436 14.3182 4.60948 14.2334 4.67199 14.1709C4.7345 14.1084 4.81928 14.0732 4.90769 14.0732H5.24102C5.97902 14.0732 6.66436 14.4399 7.07302 15.0539L7.29702 15.3899C7.58236 15.8179 8.06036 16.0732 8.57436 16.0732C9.08836 16.0732 9.56636 15.8179 9.85169 15.3899L10.0757 15.0539C10.2764 14.752 10.5487 14.5044 10.8684 14.3333C11.1881 14.1621 11.5451 14.0728 11.9077 14.0732H12.241C12.3294 14.0732 12.4142 14.1084 12.4767 14.1709C12.5392 14.2334 12.5744 14.3182 12.5744 14.4066C12.5744 14.495 12.5392 14.5798 12.4767 14.6423C12.4142 14.7048 12.3294 14.7399 12.241 14.7399H11.9077C11.3937 14.7399 10.9157 14.9952 10.6304 15.4232L10.4064 15.7592C10.2056 16.0612 9.93331 16.3088 9.61365 16.4799C9.29398 16.651 8.93694 16.7403 8.57436 16.7399Z" fill="white"/>
</g>
<defs>
<clipPath id="clip0_12521_3307">
<rect width="16" height="16" fill="white" transform="translate(0.574356 0.739746)"/>
</clipPath>
</defs>
</svg>
