<svg width="20" height="20" viewBox="0 0 20 20" fill="none" xmlns="http://www.w3.org/2000/svg">
<path d="M17.6578 0.258224C17.6289 0.259161 17.6002 0.264334 17.5728 0.273578L15.7893 0.849968C15.7502 0.862686 15.714 0.882978 15.6828 0.909687C15.6515 0.936395 15.6258 0.968997 15.6072 1.00563C15.5885 1.04226 15.5773 1.08221 15.5741 1.12319C15.5709 1.16417 15.5758 1.20538 15.5885 1.24446L15.6842 1.54093L5.27609 4.90477C5.237 4.91749 5.2008 4.93778 5.16956 4.96449C5.13831 4.9912 5.11263 5.0238 5.09399 5.06043C5.07534 5.09707 5.0641 5.13701 5.06089 5.17799C5.05768 5.21897 5.06258 5.26018 5.0753 5.29927L5.16979 5.59573L2.79218 6.36464L2.69533 6.06936C2.69282 6.05855 2.68967 6.0479 2.68588 6.03747C2.65458 5.96664 2.59813 5.90993 2.52745 5.8783C2.45677 5.84667 2.37687 5.84236 2.3032 5.86621L1.11262 6.25007C1.0734 6.26278 1.03708 6.28312 1.00574 6.30991C0.974396 6.3367 0.948658 6.36942 0.93 6.40619C0.911343 6.44295 0.900133 6.48304 0.897015 6.52416C0.893896 6.56527 0.898932 6.60659 0.911831 6.64575L2.06461 10.2128C2.11658 10.3781 2.29493 10.4691 2.45911 10.4147L3.64968 10.0297C3.7284 10.0037 3.79363 9.94765 3.83105 9.8737C3.86847 9.79974 3.87503 9.71397 3.84929 9.63518L3.75362 9.3399L6.13241 8.57099L6.22808 8.86863C6.28241 9.03281 6.4584 9.12257 6.62257 9.06942L9.46909 8.14814C9.73838 8.69619 10.2439 9.10604 10.8534 9.24423L7.26038 18.5858C7.09502 18.9814 7.70212 19.2141 7.84386 18.809L9.56948 14.3219H10.9904V18.6956C10.9809 19.1208 11.6246 19.1208 11.6152 18.6956V14.3219C12.0817 14.3219 12.5566 14.3231 13.0196 14.3183L14.7593 18.8078C14.9034 19.2117 15.5082 18.9779 15.3428 18.5834L11.7262 9.24777C12.1841 9.14987 12.5946 8.89822 12.8897 8.53466C13.1847 8.17109 13.3464 7.71751 13.3479 7.24931C13.3479 7.13119 13.3361 7.01544 13.316 6.90206L17.0307 5.70321L17.1251 5.99849C17.1783 6.16385 17.3543 6.2548 17.5196 6.20283L19.3031 5.62408C19.3423 5.61148 19.3787 5.59127 19.41 5.56462C19.4414 5.53796 19.4672 5.50538 19.486 5.46873C19.5047 5.43209 19.5161 5.3921 19.5194 5.35106C19.5227 5.31003 19.5178 5.26874 19.5051 5.22958L17.9673 0.47437C17.9465 0.409353 17.905 0.352928 17.8491 0.313692C17.7932 0.274456 17.7261 0.254563 17.6578 0.257043V0.258224ZM17.4689 0.964537L18.8153 5.12801L17.6259 5.51305L16.2795 1.3484L17.4689 0.964537ZM15.8755 2.13621L16.8381 5.11029L13.1176 6.31267C12.9451 5.97949 12.6846 5.7 12.3643 5.50465C12.0439 5.30931 11.6762 5.20558 11.301 5.20478C11.0075 5.20592 10.7177 5.27009 10.4511 5.39295C10.1846 5.51581 9.94756 5.69449 9.75606 5.91691C9.56455 6.13932 9.42306 6.40027 9.34115 6.68211C9.25924 6.96394 9.23883 7.26008 9.28129 7.55049L6.72651 8.37728L5.76744 5.40321L15.8755 2.13621ZM11.301 5.83077C12.0888 5.83077 12.7219 6.46386 12.7219 7.25167C12.7219 8.03948 12.0888 8.66902 11.301 8.66902C10.5132 8.66902 9.88366 8.03948 9.88366 7.25167C9.88366 6.46386 10.5132 5.83077 11.301 5.83077ZM5.36349 6.19102L5.93988 7.97452L3.5611 8.74461L2.98353 6.96111L5.36349 6.19102ZM11.301 6.2985C11.0491 6.30036 10.8081 6.4015 10.6303 6.57995C10.4525 6.7584 10.3523 6.99977 10.3514 7.25167C10.3514 7.77254 10.7801 8.20129 11.301 8.20129C11.5527 8.20036 11.7938 8.10005 11.9719 7.9222C12.15 7.74434 12.2506 7.50335 12.2518 7.25167C12.2509 6.99957 12.1505 6.75802 11.9725 6.57954C11.7944 6.40105 11.5531 6.30006 11.301 6.2985ZM2.1969 6.55835L3.15833 9.53124L2.56304 9.72376L1.60161 6.74969L2.1969 6.55835ZM11.301 6.9245C11.4853 6.9245 11.627 7.06741 11.627 7.25167C11.627 7.43592 11.4853 7.57648 11.301 7.57648C11.1179 7.57648 10.9762 7.43474 10.9762 7.25167C10.9762 7.06859 11.1179 6.9245 11.301 6.9245ZM10.9904 10.6297V13.6971H9.80925L10.9904 10.6297ZM11.6152 10.6947L12.7786 13.6971H11.6152V10.6947Z" fill="#999999"/>
</svg>
