       <svg width="24" height="24" viewBox="0 0 24 24" fill="none" xmlns="http://www.w3.org/2000/svg">
<g clip-path="url(#clip0_12504_12998)">
<path d="M11.8594 3.82236C10.2138 3.82229 8.60515 4.31019 7.23686 5.22437C5.86857 6.13855 4.8021 7.43795 4.17231 8.95825C3.54253 10.4785 3.37771 12.1515 3.6987 13.7654C4.01969 15.3794 4.81208 16.8619 5.97565 18.0256C7.13923 19.1892 8.62173 19.9816 10.2357 20.3027C11.8496 20.6238 13.5226 20.459 15.0429 19.8293C16.5632 19.1996 17.8627 18.1332 18.7769 16.7649C19.6911 15.3967 20.1791 13.7881 20.1791 12.1425C20.1766 9.93668 19.2993 7.82192 17.7396 6.26214C16.1799 4.70236 14.0652 3.82494 11.8594 3.82236ZM4.29 12.1425C4.29172 11.5775 4.35688 11.0145 4.48425 10.464L4.7655 11.6977C4.76749 11.7062 4.77177 11.714 4.77787 11.7202L5.12175 12.0671L5.4375 13.1452C5.52961 13.2935 5.65654 13.4171 5.80725 13.5052L6.23475 13.7565L6.783 14.4416L6.80888 14.8065L6.44213 15.8152C6.43895 15.8243 6.43856 15.8341 6.441 15.8434L6.62325 16.5322L6.4815 16.8697C6.47758 16.8793 6.47692 16.8899 6.47963 16.8998C6.48234 16.9098 6.48827 16.9186 6.4965 16.9249L7.27313 17.5219L7.33313 18.195C6.38979 17.4926 5.62347 16.5797 5.09516 15.5289C4.56685 14.4782 4.29114 13.3186 4.29 12.1425ZM19.0125 13.185C19.0155 13.1875 19.0188 13.1896 19.0223 13.1914L19.3241 13.3496C19.2837 13.6013 19.2305 13.8507 19.1647 14.097L19.1066 14.0569L18.9041 13.1715L18.8539 13.0414L19.0125 13.185ZM18.4204 11.6002L18.1601 12.0769L17.3651 11.5627C17.3562 11.557 17.3457 11.5544 17.3351 11.5552L16.7572 11.604L16.0297 11.2174C16.0229 11.2136 16.0151 11.2117 16.0072 11.2117H15.315C15.3066 11.2117 15.2983 11.214 15.291 11.2183C15.2838 11.2225 15.2778 11.2287 15.2738 11.2361L14.7851 12.1174L14.3884 12.6971C14.383 12.7048 14.3802 12.714 14.3801 12.7234V13.872C14.3801 13.8826 14.3837 13.8929 14.3903 13.9012L15.1954 14.9047C15.1995 14.9099 15.2047 14.9142 15.2106 14.9172C15.2164 14.9202 15.2229 14.922 15.2295 14.9224L15.8573 14.9546C15.8636 14.9546 15.8699 14.9535 15.876 14.9516L16.4347 14.742L16.7955 15.2392L16.7014 15.7879C16.6998 15.7962 16.7006 15.8047 16.7036 15.8126L16.9493 16.455C16.9517 16.461 16.9553 16.4665 16.9598 16.4711L17.3348 16.8517L17.355 17.3332C16.4454 18.3082 15.2918 19.0226 14.0136 19.4023C12.7354 19.7821 11.3789 19.8134 10.0845 19.4932L10.146 19.2094C10.1482 19.1997 10.1472 19.1895 10.143 19.1805L9.9375 18.711L9.95887 18.2902L10.4531 18.0337C10.461 18.0294 10.4675 18.0229 10.4719 18.015L10.8184 17.4112C10.8224 17.4041 10.8246 17.3961 10.8247 17.388V16.8049C10.8246 16.721 10.7911 16.6407 10.7318 16.5814C10.6725 16.5222 10.5921 16.4888 10.5082 16.4887H10.2274C10.1837 16.4888 10.141 16.4762 10.1044 16.4524L9.88762 16.3129C9.85632 16.2927 9.83024 16.2654 9.81153 16.2332C9.79282 16.201 9.78201 16.1648 9.78 16.1276L9.75 15.5771C9.7494 15.5672 9.74571 15.5578 9.73945 15.5501C9.73319 15.5424 9.72468 15.5369 9.71513 15.5344L8.92537 15.3244L8.67413 14.793C8.67143 14.7873 8.66761 14.7823 8.66291 14.7782C8.6582 14.774 8.6527 14.7709 8.64675 14.769L7.857 14.5016L7.71525 13.9234C7.71337 13.9151 7.70921 13.9076 7.70325 13.9016L7.2045 13.3912L7.04363 12.888C7.02404 12.8266 6.98542 12.7731 6.93337 12.7351C6.88132 12.6972 6.81854 12.6768 6.75412 12.6769H6.41025L6.14813 11.7712L6.57712 11.403H7.06875L7.614 11.6216C7.6229 11.625 7.63261 11.6257 7.64189 11.6235C7.65117 11.6214 7.65961 11.6166 7.66613 11.6096L8.00062 11.2399C8.00668 11.233 8.01061 11.2245 8.01194 11.2155C8.01327 11.2064 8.01195 11.1972 8.00812 11.1889L7.64925 10.3987L8.00025 9.87374L8.69475 9.35774C8.70066 9.35343 8.70548 9.34779 8.7088 9.34127C8.71212 9.33476 8.71386 9.32755 8.71387 9.32024V8.70149L9.32475 9.09711V9.53886C9.32475 9.55129 9.32969 9.56322 9.33848 9.57201C9.34727 9.5808 9.35919 9.58574 9.37162 9.58574H10.1854C10.1965 9.58579 10.2074 9.58185 10.2159 9.57463C10.2244 9.56742 10.2301 9.55739 10.2319 9.54636L10.38 8.62274C10.3818 8.61106 10.3791 8.59913 10.3725 8.58936L9.85462 7.81424C9.84924 7.80607 9.84134 7.79988 9.83212 7.79661L9.2295 7.56336L9.12188 6.94386C9.11994 6.93303 9.11426 6.92323 9.10583 6.91617C9.09739 6.90911 9.08675 6.90524 9.07575 6.90524H8.70563C8.69745 6.90531 8.68944 6.90751 8.68237 6.91161L8.187 7.19474L7.68525 6.92774L7.821 6.35099L8.21737 6.02961C8.22275 6.02519 8.22709 6.01964 8.23007 6.01335C8.23305 6.00706 8.23461 6.0002 8.23462 5.99324V5.49936C8.47908 5.36629 8.73071 5.24686 8.98837 5.14161L9.07125 5.27511C9.07371 5.27904 9.07674 5.28258 9.08025 5.28561L9.37613 5.54624C9.3816 5.55125 9.38823 5.55484 9.39543 5.55667C9.40263 5.5585 9.41017 5.55853 9.41738 5.55674L9.69488 5.49524V5.91636C9.69485 5.9228 9.69613 5.92917 9.69863 5.93511L9.99075 6.58911V7.06499C9.99077 7.07398 9.99336 7.08278 9.99821 7.09035C10.0031 7.09792 10.01 7.10395 10.0181 7.10774L10.758 7.43924C10.7642 7.44177 10.7708 7.44304 10.7775 7.44299C10.7835 7.44309 10.7895 7.44207 10.7951 7.43999C10.801 7.43757 10.8063 7.434 10.8107 7.42949C10.8152 7.42498 10.8187 7.41962 10.821 7.41374L11.1173 6.67386C11.1193 6.66821 11.1203 6.66224 11.1202 6.65624V5.93586L11.4026 5.65386C11.4084 5.64787 11.4126 5.64045 11.4146 5.63235C11.4166 5.62426 11.4165 5.61577 11.4142 5.60774L11.2665 5.08086C11.2644 5.07329 11.2604 5.06638 11.2549 5.0608C11.2494 5.05522 11.2425 5.05115 11.235 5.04899L10.8056 4.91699L10.6275 4.68186C11.8802 4.46454 13.1677 4.57171 14.3672 4.99316C15.5668 5.4146 16.6384 6.13627 17.4799 7.08936L17.4754 7.57949C17.4755 7.58852 17.4781 7.59734 17.4829 7.60499L17.3066 8.12324L16.9174 8.30961L16.2199 8.02461C16.2109 8.02084 16.201 8.02001 16.1916 8.02224C16.1822 8.02446 16.1737 8.02963 16.1674 8.03699L15.6904 8.56874H15.0187C15.0069 8.56866 14.9955 8.57309 14.9869 8.58111L14.3948 9.13161C14.39 9.13603 14.3862 9.14137 14.3837 9.1473C14.3811 9.15324 14.3798 9.15964 14.3798 9.16611V10.1224C14.3798 10.1334 14.3838 10.1441 14.391 10.1525C14.3982 10.1609 14.4082 10.1664 14.4191 10.1681L15.6026 10.3669C15.6096 10.3678 15.6166 10.3674 15.6233 10.3654C15.6301 10.3635 15.6363 10.3601 15.6416 10.3556L16.0721 9.97386H16.4318L16.9091 10.4512C16.9147 10.4566 16.9214 10.4605 16.9288 10.4627C16.9362 10.4648 16.944 10.4651 16.9515 10.4636C16.9591 10.462 16.9661 10.4587 16.9721 10.4538C16.978 10.4489 16.9827 10.4426 16.9856 10.4355L17.1679 9.98511L18.4069 10.398L18.1343 10.9567C18.1311 10.9631 18.1295 10.9701 18.1295 10.9772C18.1295 10.9843 18.1311 10.9912 18.1343 10.9976L18.4204 11.6002ZM10.0072 12.1327C10.0072 12.1576 9.99737 12.1814 9.97979 12.199C9.96221 12.2166 9.93836 12.2265 9.9135 12.2265H9.1635C9.13864 12.2265 9.11479 12.2166 9.09721 12.199C9.07963 12.1814 9.06975 12.1576 9.06975 12.1327C9.06975 12.1079 9.07963 12.084 9.09721 12.0664C9.11479 12.0489 9.13864 12.039 9.1635 12.039H9.9135C9.93836 12.039 9.96221 12.0489 9.97979 12.0664C9.99737 12.084 10.0072 12.1079 10.0072 12.1327ZM11.8822 12.1327C11.8822 12.1576 11.8724 12.1814 11.8548 12.199C11.8372 12.2166 11.8134 12.2265 11.7885 12.2265H11.0385C11.0136 12.2265 10.9898 12.2166 10.9722 12.199C10.9546 12.1814 10.9447 12.1576 10.9447 12.1327C10.9447 12.1079 10.9546 12.084 10.9722 12.0664C10.9898 12.0489 11.0136 12.039 11.0385 12.039H11.7885C11.8134 12.039 11.8372 12.0489 11.8548 12.0664C11.8724 12.084 11.8822 12.1079 11.8822 12.1327ZM12.8693 13.3166C12.8693 13.3415 12.8594 13.3653 12.8418 13.3829C12.8242 13.4005 12.8004 13.4104 12.7755 13.4104H12.0255C12.0006 13.4104 11.9768 13.4005 11.9592 13.3829C11.9416 13.3653 11.9318 13.3415 11.9318 13.3166C11.9318 13.2917 11.9416 13.2679 11.9592 13.2503C11.9768 13.2327 12.0006 13.2229 12.0255 13.2229H12.7755C12.8004 13.2229 12.8242 13.2327 12.8418 13.2503C12.8594 13.2679 12.8693 13.2917 12.8693 13.3166ZM10.9943 13.3166C10.9943 13.3415 10.9844 13.3653 10.9668 13.3829C10.9492 13.4005 10.9254 13.4104 10.9005 13.4104H10.1505C10.1256 13.4104 10.1018 13.4005 10.0842 13.3829C10.0666 13.3653 10.0568 13.3415 10.0568 13.3166C10.0568 13.2917 10.0666 13.2679 10.0842 13.2503C10.1018 13.2327 10.1256 13.2229 10.1505 13.2229H10.9005C10.9254 13.2229 10.9492 13.2327 10.9668 13.2503C10.9844 13.2679 10.9943 13.2917 10.9943 13.3166ZM1.12425 9.88049C1.0738 10.1218 1.0314 10.3646 0.997125 10.6087C0.99405 10.6311 0.982982 10.6517 0.965961 10.6666C0.948939 10.6814 0.927112 10.6897 0.9045 10.6897C0.900116 10.6897 0.895737 10.6894 0.891375 10.689C0.866764 10.6855 0.844527 10.6725 0.829549 10.6526C0.814572 10.6328 0.80808 10.6078 0.8115 10.5832C0.846 10.3357 0.8895 10.0864 0.940875 9.84186C0.946614 9.81789 0.961317 9.79703 0.981963 9.78357C1.00261 9.77011 1.02763 9.76507 1.05188 9.76949C1.07619 9.77462 1.09746 9.78919 1.11103 9.81001C1.1246 9.83082 1.12936 9.85617 1.12425 9.88049ZM0.98175 13.5596C1.01288 13.8019 1.053 14.0471 1.101 14.2894C1.1034 14.3015 1.10339 14.3139 1.10098 14.326C1.09856 14.3381 1.09379 14.3496 1.08693 14.3598C1.08007 14.37 1.07125 14.3788 1.06099 14.3857C1.05073 14.3925 1.03922 14.3972 1.02713 14.3996C1.02094 14.4008 1.01467 14.4014 1.00837 14.4015C0.986775 14.4014 0.965871 14.3938 0.949199 14.3801C0.932527 14.3664 0.921108 14.3473 0.916875 14.3261C0.868125 14.0797 0.82725 13.83 0.79575 13.5836C0.794171 13.5714 0.795014 13.559 0.798231 13.5471C0.801448 13.5352 0.806975 13.5241 0.814497 13.5143C0.822019 13.5046 0.831388 13.4964 0.84207 13.4903C0.852752 13.4841 0.864536 13.4802 0.87675 13.4786C0.901293 13.4761 0.925862 13.4831 0.945396 13.4982C0.96493 13.5132 0.977942 13.5352 0.98175 13.5596ZM0.801375 12.5505C0.776896 12.5505 0.753385 12.5409 0.735867 12.5238C0.718348 12.5067 0.708212 12.4835 0.707625 12.459C0.704625 12.354 0.703125 12.2482 0.703125 12.1425C0.703125 11.9967 0.706 11.8514 0.71175 11.7064C0.711927 11.6939 0.714627 11.6817 0.719686 11.6704C0.724745 11.659 0.732057 11.6488 0.741178 11.6404C0.750299 11.632 0.761037 11.6255 0.77274 11.6214C0.784442 11.6173 0.796864 11.6155 0.80925 11.6164C0.821565 11.6168 0.833663 11.6197 0.844854 11.6249C0.856044 11.6301 0.866107 11.6374 0.874466 11.6465C0.882825 11.6555 0.889317 11.6661 0.893569 11.6777C0.897822 11.6893 0.899752 11.7015 0.89925 11.7139C0.889398 11.9605 0.888022 12.2074 0.895125 12.4541C0.895474 12.4665 0.893381 12.4787 0.888967 12.4903C0.884552 12.5018 0.877903 12.5124 0.869401 12.5213C0.860899 12.5303 0.850711 12.5375 0.839423 12.5425C0.828136 12.5475 0.81597 12.5502 0.803625 12.5505H0.801375ZM2.44762 6.32549C2.45815 6.3319 2.4673 6.34033 2.47456 6.3503C2.48182 6.36025 2.48705 6.37155 2.48994 6.38353C2.49283 6.39551 2.49333 6.40795 2.49141 6.42012C2.48949 6.4323 2.48519 6.44397 2.47875 6.45449C2.35062 6.66532 2.22967 6.88045 2.11613 7.09949C2.10822 7.11474 2.09627 7.12753 2.08159 7.13646C2.06691 7.14539 2.05006 7.15011 2.03288 7.15011C2.01786 7.15019 2.00305 7.14658 1.98975 7.13961C1.97882 7.13395 1.96911 7.12619 1.96117 7.11677C1.95324 7.10736 1.94724 7.09647 1.94351 7.08473C1.93979 7.073 1.93841 7.06064 1.93946 7.04838C1.94051 7.03611 1.94396 7.02417 1.94963 7.01324C2.06475 6.79124 2.18888 6.57074 2.31862 6.35699C2.33159 6.33585 2.35238 6.32069 2.37646 6.31479C2.40055 6.30889 2.42636 6.31274 2.44762 6.32549ZM2.41688 17.7274C2.42318 17.7379 2.42733 17.7497 2.42911 17.7619C2.43088 17.7741 2.43023 17.7865 2.4272 17.7984C2.42417 17.8104 2.41882 17.8216 2.41145 17.8315C2.40408 17.8414 2.39484 17.8497 2.38425 17.856C2.37366 17.8623 2.36194 17.8664 2.34974 17.8682C2.33755 17.87 2.32512 17.8693 2.31318 17.8663C2.30124 17.8633 2.29001 17.8579 2.28013 17.8506C2.27026 17.8432 2.26193 17.8339 2.25563 17.8234C2.12773 17.6077 2.00729 17.3877 1.8945 17.1637C1.88808 17.1527 1.884 17.1404 1.88249 17.1277C1.88099 17.115 1.88209 17.1021 1.88575 17.0899C1.8894 17.0776 1.89553 17.0663 1.90374 17.0565C1.91195 17.0467 1.92209 17.0386 1.93351 17.0329C1.94494 17.0272 1.95742 17.0238 1.97019 17.0231C1.98295 17.0224 1.99573 17.0242 2.00775 17.0286C2.01976 17.033 2.03074 17.0398 2.04003 17.0486C2.04932 17.0574 2.05671 17.068 2.06175 17.0797C2.17125 17.2969 2.29088 17.5147 2.41688 17.7274ZM1.65562 8.10974C1.56496 8.33938 1.48204 8.57201 1.407 8.80724C1.40096 8.82617 1.38906 8.84269 1.37302 8.85442C1.35698 8.86614 1.33762 8.87247 1.31775 8.87249C1.30795 8.87244 1.29822 8.87093 1.28887 8.86799C1.26521 8.86041 1.24553 8.84376 1.23414 8.82168C1.22274 8.7996 1.22058 8.77391 1.22813 8.75024C1.30425 8.51249 1.38937 8.27399 1.48162 8.04074C1.49172 8.01905 1.50973 8.00205 1.53195 7.9932C1.55417 7.98436 1.57894 7.98435 1.60117 7.99316C1.62341 8.00198 1.64143 8.01896 1.65155 8.04063C1.66168 8.0623 1.66313 8.08703 1.65562 8.10974ZM1.37175 15.3652C1.44375 15.5992 1.52475 15.8344 1.61288 16.0646C1.61729 16.0761 1.61939 16.0884 1.61906 16.1007C1.61873 16.113 1.61598 16.1251 1.61097 16.1364C1.60596 16.1476 1.59877 16.1578 1.58983 16.1662C1.5809 16.1747 1.57038 16.1813 1.55888 16.1857C1.54814 16.19 1.53668 16.1922 1.52512 16.1921C1.50621 16.1921 1.48774 16.1864 1.47214 16.1756C1.45655 16.1649 1.44456 16.1498 1.43775 16.1321C1.34807 15.8977 1.2664 15.6603 1.19287 15.4204C1.1884 15.4084 1.18642 15.3956 1.18706 15.3829C1.18769 15.3701 1.19093 15.3576 1.19657 15.3462C1.2022 15.3347 1.21012 15.3245 1.21984 15.3162C1.22956 15.3079 1.24087 15.3017 1.25308 15.2979C1.26529 15.2942 1.27814 15.293 1.29084 15.2943C1.30354 15.2957 1.31582 15.2997 1.32693 15.306C1.33805 15.3123 1.34775 15.3208 1.35546 15.331C1.36317 15.3412 1.36871 15.3528 1.37175 15.3652ZM3.48938 19.2315C3.50549 19.2505 3.51339 19.2751 3.51135 19.2999C3.50931 19.3248 3.4975 19.3477 3.4785 19.3639C3.4595 19.38 3.43489 19.3879 3.41006 19.3858C3.38523 19.3838 3.36224 19.372 3.34613 19.353C3.18418 19.1615 3.02859 18.9648 2.87962 18.7631C2.86566 18.7431 2.86006 18.7184 2.86401 18.6943C2.86797 18.6702 2.88117 18.6486 2.90082 18.6341C2.92046 18.6196 2.94498 18.6133 2.96918 18.6166C2.99338 18.6199 3.01533 18.6325 3.03038 18.6517C3.17738 18.8505 3.3315 19.0455 3.48938 19.2315ZM7.27537 2.07074C7.27037 2.05948 7.26764 2.04736 7.26733 2.03505C7.26702 2.02274 7.26913 2.01049 7.27355 1.999C7.27798 1.9875 7.28462 1.977 7.2931 1.96807C7.30159 1.95915 7.31175 1.95198 7.323 1.94699C7.54987 1.84574 7.78425 1.75124 8.019 1.66461C8.03057 1.66035 8.04287 1.65841 8.05519 1.65891C8.06751 1.6594 8.07962 1.66231 8.09081 1.66748C8.10201 1.67266 8.11208 1.67998 8.12044 1.68904C8.12881 1.6981 8.1353 1.70873 8.13956 1.7203C8.14382 1.73187 8.14576 1.74417 8.14527 1.75649C8.14477 1.76881 8.14186 1.78092 8.13669 1.79211C8.13152 1.80331 8.12419 1.81337 8.11513 1.82174C8.10607 1.8301 8.09545 1.8366 8.08387 1.84086C7.85287 1.92561 7.62263 2.01899 7.39913 2.11836C7.3871 2.12379 7.37407 2.1266 7.36088 2.12661C7.34275 2.12656 7.32502 2.12126 7.30985 2.11134C7.29467 2.10142 7.2827 2.08732 7.27537 2.07074ZM10.8649 1.12349C10.8629 1.09873 10.8708 1.0742 10.8869 1.05528C10.903 1.03637 10.926 1.02462 10.9508 1.02261C11.1979 1.00311 11.4506 0.990735 11.7022 0.98736H11.7034C11.7282 0.987211 11.7521 0.996945 11.7698 1.01442C11.7875 1.0319 11.7975 1.05568 11.7977 1.08055C11.7978 1.10541 11.7881 1.12932 11.7706 1.147C11.7532 1.16469 11.7294 1.17471 11.7045 1.17486C11.4574 1.17861 11.2087 1.18986 10.9657 1.20974H10.9583C10.9346 1.20981 10.9119 1.20097 10.8945 1.18498C10.8771 1.16899 10.8668 1.14703 10.8649 1.12349ZM9.02925 1.44449C9.02322 1.42047 9.02693 1.39504 9.03957 1.37376C9.05222 1.35247 9.07277 1.33705 9.09675 1.33086C9.33991 1.26906 9.58505 1.21528 9.83175 1.16961C9.84386 1.16739 9.8563 1.16759 9.86834 1.17017C9.88038 1.17276 9.89179 1.1777 9.90192 1.1847C9.91206 1.1917 9.92071 1.20062 9.92739 1.21097C9.93408 1.22131 9.93866 1.23287 9.94088 1.24499C9.94309 1.2571 9.9429 1.26953 9.94031 1.28157C9.93772 1.29361 9.93279 1.30503 9.92579 1.31516C9.91879 1.32529 9.90986 1.33395 9.89952 1.34063C9.88917 1.34731 9.87761 1.35189 9.8655 1.35411C9.621 1.39911 9.378 1.45274 9.14325 1.51236C9.13564 1.51424 9.12784 1.51524 9.12 1.51536C9.09914 1.51532 9.0789 1.50833 9.06246 1.4955C9.04603 1.48266 9.03434 1.46471 9.02925 1.44449ZM12.7286 1.11299C12.7311 1.08838 12.743 1.0657 12.7619 1.04974C12.7808 1.03378 12.8052 1.0258 12.8299 1.02749C13.0811 1.04924 13.3324 1.07961 13.5773 1.11749C13.6001 1.12159 13.6206 1.13403 13.6349 1.1524C13.6491 1.17077 13.656 1.19376 13.6542 1.21692C13.6524 1.24009 13.6421 1.26176 13.6252 1.27775C13.6084 1.29375 13.5862 1.30292 13.563 1.30349C13.5582 1.30359 13.5535 1.30334 13.5487 1.30274C13.3048 1.26495 13.0597 1.23543 12.8137 1.21424C12.7891 1.21204 12.7662 1.20016 12.7503 1.18118C12.7343 1.16221 12.7265 1.13769 12.7286 1.11299ZM2.97112 5.55486C2.95123 5.53994 2.93808 5.51773 2.93457 5.49312C2.93105 5.4685 2.93746 5.4435 2.95237 5.42361C3.10162 5.22636 3.261 5.02949 3.426 4.83861C3.43408 4.8293 3.44391 4.82168 3.45493 4.81617C3.46595 4.81066 3.47795 4.80738 3.49025 4.80651C3.50254 4.80564 3.51488 4.8072 3.52657 4.8111C3.53826 4.815 3.54907 4.82116 3.55838 4.82924C3.56768 4.83731 3.57531 4.84714 3.58082 4.85817C3.58632 4.86919 3.58961 4.88119 3.59048 4.89348C3.59135 4.90577 3.58979 4.91812 3.58589 4.92981C3.58199 4.9415 3.57583 4.9523 3.56775 4.96161C3.40538 5.14911 3.249 5.34261 3.10238 5.53686C3.08735 5.55664 3.06508 5.56964 3.04047 5.57301C3.01587 5.57639 2.99092 5.56986 2.97112 5.55486ZM5.65163 2.98424C5.64479 2.97397 5.64005 2.96246 5.63767 2.95036C5.63528 2.93826 5.63531 2.92581 5.63775 2.91373C5.64019 2.90164 5.64499 2.89015 5.65188 2.87992C5.65876 2.86969 5.6676 2.86092 5.67788 2.85411C5.88638 2.71511 6.0995 2.58316 6.31687 2.45849C6.33832 2.44741 6.3632 2.44503 6.38635 2.45184C6.4095 2.45866 6.42913 2.47413 6.44116 2.49505C6.45319 2.51597 6.45669 2.54072 6.45093 2.56415C6.44518 2.58759 6.4306 2.6079 6.41025 2.62086C6.19837 2.74236 5.9865 2.87324 5.78137 3.01011C5.76068 3.0238 5.7354 3.02872 5.71108 3.0238C5.68675 3.01888 5.66538 3.00452 5.65163 2.98386V2.98424ZM4.20337 4.15686C4.19489 4.14791 4.18825 4.13737 4.18384 4.12584C4.17943 4.11432 4.17734 4.10204 4.17769 4.08971C4.17804 4.07737 4.18082 4.06523 4.18587 4.05397C4.19092 4.04272 4.19814 4.03257 4.20712 4.02411C4.38862 3.85311 4.57838 3.68586 4.7715 3.52649C4.78103 3.51866 4.79201 3.51278 4.80381 3.50919C4.81561 3.5056 4.828 3.50438 4.84027 3.50558C4.85255 3.50678 4.86447 3.51039 4.87535 3.51619C4.88623 3.522 4.89586 3.52989 4.90369 3.53942C4.91152 3.54895 4.91739 3.55993 4.92098 3.57173C4.92457 3.58353 4.9258 3.59592 4.9246 3.6082C4.92339 3.62047 4.91979 3.63239 4.91398 3.64327C4.90817 3.65415 4.90028 3.66378 4.89075 3.67161C4.701 3.82799 4.51425 3.99224 4.33575 4.16061C4.31769 4.17764 4.2936 4.18681 4.26879 4.18611C4.24397 4.1854 4.22045 4.17489 4.20337 4.15686ZM14.5684 1.41299C14.5748 1.38904 14.5904 1.36859 14.6118 1.35609C14.6333 1.3436 14.6587 1.34005 14.6827 1.34624C14.9227 1.40886 15.1654 1.48124 15.4039 1.56036C15.4249 1.56743 15.4428 1.58176 15.4543 1.60079C15.4658 1.61982 15.4701 1.64231 15.4666 1.66425C15.463 1.68619 15.4518 1.70615 15.4349 1.72057C15.418 1.73499 15.3965 1.74293 15.3743 1.74299C15.3641 1.74314 15.3539 1.74162 15.3442 1.73849C15.1104 1.66032 14.874 1.59003 14.6355 1.52774C14.6235 1.52464 14.6123 1.51921 14.6025 1.51176C14.5926 1.5043 14.5843 1.49498 14.5781 1.48432C14.5718 1.47365 14.5678 1.46186 14.5661 1.44962C14.5644 1.43738 14.5652 1.42493 14.5684 1.41299ZM9.82537 23.0186C9.82121 23.0399 9.80976 23.0591 9.79301 23.0729C9.77625 23.0868 9.75522 23.0943 9.7335 23.0944C9.72732 23.0945 9.72115 23.0939 9.71513 23.0925C9.46891 23.0445 9.2244 22.9882 8.982 22.9237C8.96935 22.9213 8.95732 22.9163 8.94668 22.9091C8.93604 22.9018 8.92701 22.8925 8.92015 22.8816C8.91329 22.8707 8.90874 22.8585 8.9068 22.8457C8.90487 22.833 8.90557 22.82 8.90888 22.8076C8.91218 22.7951 8.91802 22.7835 8.92602 22.7734C8.93402 22.7633 8.94401 22.755 8.95538 22.7489C8.96674 22.7428 8.97923 22.7392 8.99207 22.7382C9.00491 22.7372 9.01782 22.7388 9.03 22.743C9.27112 22.8067 9.51375 22.8626 9.75113 22.9087C9.76322 22.9111 9.77473 22.9158 9.785 22.9226C9.79528 22.9293 9.80412 22.9381 9.81101 22.9483C9.81791 22.9585 9.82273 22.97 9.82519 22.982C9.82765 22.9941 9.82772 23.0065 9.82537 23.0186ZM21.1418 18.1631C21.1624 18.1769 21.1768 18.1982 21.1817 18.2226C21.1866 18.2469 21.1817 18.2722 21.168 18.2929C21.0295 18.5022 20.8841 18.7068 20.7319 18.9064C20.7244 18.9162 20.7151 18.9244 20.7045 18.9306C20.6938 18.9368 20.6821 18.9408 20.6698 18.9425C20.6576 18.9441 20.6452 18.9434 20.6333 18.9402C20.6214 18.9371 20.6102 18.9316 20.6004 18.9242C20.5906 18.9167 20.5824 18.9074 20.5762 18.8968C20.57 18.8861 20.566 18.8743 20.5643 18.8621C20.5627 18.8499 20.5634 18.8375 20.5666 18.8256C20.5697 18.8137 20.5752 18.8025 20.5826 18.7927C20.7326 18.5966 20.8766 18.3937 21.012 18.1897C21.0258 18.1691 21.0471 18.1547 21.0714 18.1498C21.0958 18.1449 21.1211 18.1494 21.1418 18.1631ZM18.6255 20.8961C18.6405 20.9159 18.6471 20.9408 18.6438 20.9654C18.6405 20.99 18.6276 21.0123 18.6079 21.0274C18.4091 21.1785 18.2025 21.3251 17.9944 21.4624C17.979 21.4724 17.961 21.4777 17.9426 21.4777C17.9224 21.4778 17.9027 21.4713 17.8865 21.4593C17.8703 21.4473 17.8584 21.4303 17.8525 21.411C17.8467 21.3916 17.8473 21.3709 17.8542 21.3519C17.8611 21.3329 17.874 21.3167 17.8909 21.3056C18.0956 21.1706 18.2985 21.027 18.4943 20.8781C18.5141 20.8633 18.539 20.8569 18.5636 20.8603C18.5881 20.8636 18.6104 20.8765 18.6255 20.8961ZM22.0226 16.5206C22.0453 16.5307 22.063 16.5493 22.0719 16.5725C22.0808 16.5956 22.0802 16.6213 22.0702 16.644C21.9694 16.8727 21.8591 17.1007 21.7429 17.3227C21.7374 17.3341 21.7297 17.3442 21.7203 17.3526C21.7108 17.3609 21.6997 17.3672 21.6878 17.3712C21.6758 17.3751 21.6632 17.3766 21.6506 17.3756C21.638 17.3745 21.6258 17.3709 21.6147 17.3651C21.6035 17.3592 21.5937 17.3511 21.5857 17.3414C21.5777 17.3316 21.5718 17.3203 21.5683 17.3082C21.5648 17.2961 21.5638 17.2834 21.5653 17.2709C21.5668 17.2584 21.5708 17.2463 21.5771 17.2354C21.6911 17.0175 21.7995 16.7932 21.8989 16.5682C21.9038 16.5569 21.911 16.5468 21.9199 16.5382C21.9288 16.5297 21.9393 16.5231 21.9508 16.5186C21.9623 16.5142 21.9746 16.5121 21.9869 16.5124C21.9992 16.5128 22.0114 16.5156 22.0226 16.5206ZM19.9984 19.6354C20.0074 19.6438 20.0147 19.6539 20.0198 19.6651C20.0249 19.6763 20.0278 19.6885 20.0282 19.7008C20.0286 19.7131 20.0266 19.7254 20.0222 19.737C20.0179 19.7485 20.0113 19.7591 20.0029 19.7681C19.8319 19.9504 19.6526 20.1292 19.4704 20.2995C19.4614 20.3079 19.4508 20.3145 19.4392 20.3188C19.4277 20.3231 19.4154 20.3251 19.4031 20.3247C19.3907 20.3243 19.3786 20.3215 19.3674 20.3164C19.3562 20.3113 19.346 20.304 19.3376 20.295C19.3292 20.286 19.3226 20.2754 19.3183 20.2638C19.314 20.2523 19.312 20.24 19.3124 20.2277C19.3128 20.2154 19.3156 20.2032 19.3207 20.192C19.3258 20.1808 19.3331 20.1707 19.3421 20.1622C19.5217 19.995 19.698 19.8191 19.8656 19.6399C19.874 19.6308 19.8841 19.6235 19.8954 19.6184C19.9066 19.6133 19.9187 19.6105 19.9311 19.61C19.9434 19.6096 19.9557 19.6116 19.9672 19.616C19.9788 19.6203 19.9894 19.6269 19.9984 19.6354ZM22.9706 11.1322C22.9931 11.382 23.007 11.6351 23.013 11.8837C23.0133 11.8961 23.0112 11.9084 23.0067 11.9199C23.0022 11.9314 22.9955 11.9419 22.987 11.9508C22.9785 11.9597 22.9683 11.9669 22.9569 11.9719C22.9456 11.9768 22.9335 11.9795 22.9211 11.9797H22.9193C22.8948 11.9797 22.8713 11.9702 22.8537 11.9531C22.8362 11.936 22.8261 11.9127 22.8255 11.8882C22.8199 11.6416 22.8062 11.3952 22.7843 11.1495C22.7823 11.1369 22.783 11.124 22.7862 11.1116C22.7895 11.0992 22.7952 11.0877 22.8031 11.0776C22.8109 11.0675 22.8208 11.0592 22.832 11.0531C22.8432 11.0469 22.8556 11.0432 22.8683 11.042C22.881 11.0408 22.8938 11.0422 22.906 11.0462C22.9181 11.0502 22.9293 11.0566 22.9389 11.065C22.9485 11.0735 22.9563 11.0838 22.9617 11.0954C22.9672 11.1069 22.9702 11.1195 22.9706 11.1322ZM22.6811 14.8661C22.62 15.1096 22.5507 15.351 22.4734 15.5899C22.4672 15.6087 22.4552 15.625 22.4392 15.6366C22.4232 15.6482 22.4039 15.6544 22.3841 15.6544C22.3743 15.6543 22.3646 15.6528 22.3552 15.6499C22.3316 15.6421 22.3121 15.6254 22.3008 15.6032C22.2896 15.5811 22.2876 15.5554 22.2952 15.5317C22.371 15.2974 22.4396 15.0581 22.4993 14.8207C22.5019 14.8086 22.5071 14.7972 22.5143 14.7872C22.5216 14.7772 22.5308 14.7687 22.5415 14.7623C22.5521 14.756 22.5639 14.7519 22.5762 14.7502C22.5885 14.7486 22.601 14.7495 22.6129 14.7529C22.6369 14.7589 22.6576 14.7742 22.6704 14.7954C22.6832 14.8166 22.687 14.842 22.6811 14.8661ZM22.9823 13.0117C22.963 13.2617 22.9354 13.511 22.8994 13.7591C22.8961 13.7814 22.885 13.8017 22.868 13.8165C22.851 13.8312 22.8293 13.8393 22.8068 13.8394C22.8021 13.8394 22.7975 13.839 22.7929 13.8382C22.7683 13.8346 22.7462 13.8214 22.7314 13.8015C22.7166 13.7816 22.7102 13.7567 22.7137 13.7321C22.7493 13.4881 22.7766 13.243 22.7955 12.9971C22.7984 12.9731 22.8105 12.9512 22.8292 12.9359C22.8479 12.9206 22.8718 12.9131 22.8959 12.915C22.92 12.9169 22.9424 12.928 22.9585 12.946C22.9746 12.9641 22.9831 12.9876 22.9823 13.0117ZM8.02875 22.5236C8.02198 22.5414 8.00996 22.5567 7.99428 22.5675C7.97861 22.5783 7.96003 22.584 7.941 22.584C7.92947 22.5842 7.91801 22.5821 7.90725 22.578C7.67258 22.4889 7.44095 22.3919 7.21275 22.2874C7.20155 22.2822 7.19146 22.275 7.18307 22.2659C7.17468 22.2569 7.16815 22.2463 7.16385 22.2348C7.15955 22.2233 7.15756 22.211 7.15801 22.1987C7.15845 22.1864 7.16132 22.1743 7.16644 22.163C7.17156 22.1518 7.17884 22.1418 7.18786 22.1334C7.19688 22.125 7.20746 22.1184 7.219 22.1141C7.23055 22.1098 7.24282 22.1079 7.25513 22.1083C7.26744 22.1087 7.27955 22.1116 7.29075 22.1167C7.51575 22.2202 7.746 22.3162 7.97437 22.4029C7.99758 22.4117 8.01634 22.4294 8.02653 22.452C8.03672 22.4746 8.03752 22.5004 8.02875 22.5236ZM4.7985 20.5361C4.81639 20.5524 4.82726 20.5751 4.82884 20.5992C4.83042 20.6234 4.82258 20.6472 4.80697 20.6658C4.79136 20.6843 4.76918 20.696 4.7451 20.6986C4.72101 20.7011 4.69687 20.6942 4.67775 20.6794C4.48612 20.5181 4.29788 20.3486 4.119 20.1757C4.10938 20.1674 4.10155 20.1572 4.09599 20.1458C4.09044 20.1343 4.08727 20.1219 4.08669 20.1091C4.0861 20.0964 4.08811 20.0837 4.09259 20.0718C4.09707 20.0599 4.10393 20.049 4.11275 20.0399C4.12156 20.0307 4.13216 20.0234 4.14388 20.0185C4.1556 20.0135 4.16821 20.011 4.18093 20.0111C4.19366 20.0112 4.20623 20.0138 4.21789 20.0189C4.22955 20.024 4.24005 20.0315 4.24875 20.0407C4.425 20.2106 4.60987 20.3779 4.7985 20.5361ZM11.679 23.2039C11.6784 23.2283 11.6683 23.2516 11.6508 23.2687C11.6332 23.2858 11.6097 23.2954 11.5852 23.2954H11.583C11.3323 23.2891 11.082 23.2748 10.8322 23.2522C10.82 23.2511 10.8081 23.2476 10.7972 23.2418C10.7863 23.2361 10.7766 23.2283 10.7687 23.2188C10.7609 23.2093 10.7549 23.1984 10.7513 23.1866C10.7477 23.1749 10.7464 23.1625 10.7475 23.1502C10.7504 23.1258 10.7626 23.1034 10.7815 23.0877C10.8004 23.0719 10.8246 23.064 10.8491 23.0655C11.0921 23.0872 11.3404 23.1015 11.5879 23.1079C11.6127 23.1085 11.6362 23.119 11.6533 23.137C11.6704 23.155 11.6796 23.1791 11.679 23.2039ZM6.3075 21.6037C6.32533 21.6141 6.33924 21.6301 6.34706 21.6492C6.35488 21.6683 6.35618 21.6895 6.35075 21.7094C6.34532 21.7293 6.33347 21.7469 6.31704 21.7594C6.30061 21.7719 6.28052 21.7786 6.25988 21.7785C6.24326 21.7786 6.22694 21.7742 6.21262 21.7657C5.9961 21.6385 5.78397 21.5039 5.57662 21.3622C5.56574 21.3556 5.55632 21.3469 5.54893 21.3365C5.54154 21.3261 5.53635 21.3143 5.53367 21.3019C5.53098 21.2894 5.53087 21.2765 5.53332 21.264C5.53578 21.2515 5.54076 21.2397 5.54795 21.2292C5.55515 21.2187 5.56441 21.2097 5.57517 21.2029C5.58593 21.1961 5.59797 21.1915 5.61055 21.1895C5.62313 21.1875 5.63599 21.1881 5.64834 21.1912C5.66069 21.1944 5.67227 21.2 5.68237 21.2077C5.88487 21.3457 6.09487 21.4789 6.3075 21.6037ZM13.5386 23.079C13.5421 23.1035 13.5357 23.1283 13.5208 23.1482C13.506 23.168 13.484 23.1811 13.4595 23.1847C13.212 23.2204 12.9604 23.2477 12.7114 23.2665H12.7039C12.6804 23.2653 12.6582 23.2554 12.6417 23.2387C12.6251 23.2219 12.6155 23.1996 12.6147 23.176C12.6139 23.1525 12.622 23.1296 12.6373 23.1117C12.6527 23.0939 12.6741 23.0825 12.6975 23.0797C12.9433 23.0612 13.1885 23.0344 13.4325 22.9995C13.4447 22.9977 13.4571 22.9984 13.469 23.0015C13.481 23.0045 13.4922 23.0099 13.502 23.0173C13.5119 23.0246 13.5202 23.0339 13.5265 23.0445C13.5327 23.0551 13.5369 23.0668 13.5386 23.079ZM17.0621 21.9082C17.0679 21.9192 17.0714 21.9311 17.0725 21.9434C17.0736 21.9557 17.0723 21.9681 17.0686 21.9799C17.0649 21.9916 17.0589 22.0026 17.051 22.012C17.043 22.0215 17.0333 22.0293 17.0224 22.035C16.8011 22.1512 16.5728 22.2604 16.3451 22.3601C16.3333 22.3653 16.3205 22.368 16.3076 22.368C16.2862 22.3679 16.2655 22.3604 16.2489 22.3469C16.2324 22.3333 16.2209 22.3146 16.2165 22.2936C16.2121 22.2727 16.2149 22.2509 16.2246 22.2318C16.2343 22.2127 16.2502 22.1975 16.2698 22.1887C16.4953 22.0896 16.7174 21.9827 16.9357 21.8685C16.9578 21.8571 16.9834 21.8549 17.0071 21.8624C17.0308 21.8698 17.0506 21.8863 17.0621 21.9082ZM15.3502 22.6432C15.354 22.655 15.3555 22.6673 15.3545 22.6796C15.3535 22.6919 15.3502 22.7038 15.3445 22.7148C15.3389 22.7258 15.3312 22.7355 15.3218 22.7435C15.3125 22.7515 15.3016 22.7576 15.2899 22.7614C15.0499 22.8386 14.8061 22.9084 14.5661 22.9676C14.5588 22.9697 14.5512 22.9707 14.5436 22.9706C14.5209 22.9704 14.499 22.9619 14.4821 22.9467C14.4652 22.9316 14.4543 22.9108 14.4516 22.8882C14.4488 22.8657 14.4544 22.8429 14.4671 22.8241C14.4799 22.8053 14.4991 22.7918 14.5211 22.7861C14.7574 22.7272 14.9962 22.6586 15.2325 22.5829C15.2561 22.5756 15.2816 22.5778 15.3035 22.589C15.3255 22.6002 15.3423 22.6199 15.3502 22.6432ZM23.1915 8.94336L22.26 7.45311C22.2115 7.37544 22.1482 7.30808 22.0736 7.25488C21.9991 7.20169 21.9148 7.1637 21.8256 7.14308C21.7364 7.12247 21.644 7.11963 21.5537 7.13473C21.4634 7.14984 21.3769 7.18259 21.2992 7.23111L21.2539 7.25961L20.9464 6.76574L21.5651 6.37911C21.7675 6.25259 21.9113 6.05086 21.965 5.8183C22.0187 5.58574 21.9777 5.34138 21.8512 5.13899L21.0799 3.90449C20.9533 3.70237 20.7517 3.55876 20.5193 3.50518C20.2869 3.45161 20.0428 3.49245 19.8405 3.61874L19.2214 4.00574L18.9131 3.51224L18.9581 3.48411C19.1146 3.38577 19.2258 3.22943 19.2674 3.0493C19.3089 2.86918 19.2774 2.67994 19.1798 2.52299L18.2482 1.03274C18.1997 0.955093 18.1364 0.887769 18.0618 0.83461C17.9873 0.781451 17.903 0.743498 17.8138 0.722917C17.7246 0.702337 17.6322 0.699533 17.5419 0.714665C17.4516 0.729797 17.3651 0.76257 17.2875 0.81111L16.5623 1.26411C16.4845 1.31261 16.4171 1.37595 16.3639 1.45051C16.3107 1.52507 16.2727 1.6094 16.252 1.69866C16.2314 1.78792 16.2286 1.88037 16.2437 1.97073C16.2589 2.06108 16.2917 2.14757 16.3403 2.22524L17.2717 3.71586C17.3699 3.87253 17.5262 3.98383 17.7063 4.02532C17.8865 4.0668 18.0757 4.03508 18.2325 3.93711L18.276 3.91011L18.5839 4.40361L18.3844 4.52811C18.1825 4.65496 18.0391 4.85663 17.9855 5.08898C17.9319 5.32133 17.9726 5.56543 18.0986 5.76786L18.87 7.00236C18.9966 7.20447 19.1982 7.34808 19.4306 7.40166C19.6629 7.45524 19.9071 7.4144 20.1094 7.28811L20.3085 7.16399L20.6179 7.65674L20.574 7.68411C20.4962 7.73258 20.4288 7.79589 20.3755 7.87044C20.3223 7.94499 20.2842 8.02931 20.2636 8.11858C20.2429 8.20784 20.2401 8.3003 20.2552 8.39067C20.2703 8.48104 20.3031 8.56754 20.3516 8.64524L21.2831 10.1359C21.3812 10.2926 21.5375 10.404 21.7176 10.4455C21.8978 10.4871 22.0871 10.4554 22.2439 10.3575L22.9695 9.90411C23.1261 9.8059 23.2373 9.64965 23.2789 9.46959C23.3205 9.28952 23.2891 9.1003 23.1915 8.94336ZM17.8792 3.27336L17.004 1.87236L17.6396 1.47486L18.5153 2.87624L17.8792 3.27336ZM21.891 9.69336L21.0154 8.29236L21.6514 7.89486L22.527 9.29624L21.891 9.69336Z" fill="#4D4D4D"/>
</g>
<defs>
<clipPath id="clip0_12504_12998">
<rect width="24" height="24" fill="white"/>
</clipPath>
</defs>
</svg>
