<svg width="25" height="24" viewBox="0 0 25 24" fill="none" xmlns="http://www.w3.org/2000/svg">
<g clip-path="url(#clip0_12332_1179)">
<path d="M24.2994 0.146442C24.2013 0.0535256 24.0838 0.00683594 23.9466 0.00683594C21.3894 0.00683594 19.2779 0.354564 17.6123 1.05033C15.9469 1.74619 14.193 3.01016 12.3509 4.84223C11.5672 5.63591 10.7048 6.59127 9.76431 7.70822L4.19423 8.00205C4.03743 8.02197 3.91008 8.10016 3.81212 8.2373L0.520004 13.8812C0.402379 14.0772 0.426985 14.2683 0.593462 14.4545L1.534 15.395C1.62223 15.4833 1.73481 15.5273 1.87205 15.5273C1.93089 15.5273 1.97485 15.5223 2.00424 15.5125L6.06074 14.263L10.1906 18.3931L8.94134 22.4492C8.89249 22.6258 8.93167 22.7824 9.05897 22.9196L9.99956 23.8603C10.1074 23.9482 10.2201 23.9924 10.3376 23.9924C10.4259 23.9924 10.5043 23.9727 10.5728 23.9335L16.2167 20.6414C16.3539 20.5435 16.4322 20.4163 16.4518 20.2595L16.7457 14.6892C17.8627 13.7485 18.8183 12.8864 19.6117 12.1025C21.3563 10.3484 22.5979 8.58256 23.3374 6.80428C24.0773 5.0259 24.447 2.91678 24.447 0.477233C24.4469 0.349879 24.3979 0.239718 24.2994 0.146442ZM20.7432 5.70947C20.4691 5.98363 20.1358 6.12097 19.7439 6.12097C19.3519 6.12097 19.019 5.98379 18.7445 5.70947C18.4704 5.43509 18.333 5.10193 18.333 4.70994C18.333 4.31814 18.4702 3.98493 18.7445 3.71056C19.0188 3.43634 19.3519 3.2991 19.7439 3.2991C20.1358 3.2991 20.469 3.43619 20.7432 3.71056C21.0175 3.98493 21.1547 4.31814 21.1547 4.70994C21.1547 5.10199 21.0179 5.43489 20.7432 5.70947Z" fill="white"/>
</g>
<defs>
<clipPath id="clip0_12332_1179">
<rect width="24" height="24" fill="white" transform="translate(0.447021)"/>
</clipPath>
</defs>
</svg>
