<svg width="20" height="20" viewBox="0 0 20 20" fill="none" xmlns="http://www.w3.org/2000/svg">
<path d="M15.685 11.025L15.5459 10.9059C15.6516 10.3066 15.6516 9.6934 15.5459 9.09406L15.685 8.97469C16.9634 7.88062 18.3762 6.38406 17.8481 5.46875H17.8484C17.4794 4.82969 16.3631 4.78219 14.5303 5.32719C14.2057 5.42559 13.884 5.53335 13.5656 5.65031C13.7451 5.79954 13.9153 5.95974 14.075 6.13C14.2919 6.05562 14.5031 5.98719 14.7084 5.92625C16.5156 5.38875 17.1919 5.58187 17.3069 5.78125C17.4353 6.00375 17.1894 6.83594 15.3919 8.40031C15.1378 7.55031 14.6866 6.77263 14.075 6.13C13.4612 6.3441 12.8568 6.58401 12.2634 6.84969C12.3553 7.86219 12.4022 8.93219 12.4022 9.99969C12.4022 11.0672 12.3553 12.1375 12.2634 13.15C12.8568 13.4157 13.4612 13.6559 14.075 13.87C14.6866 13.2274 15.1378 12.4494 15.3919 11.5994C17.1894 13.1641 17.4356 13.9963 17.3065 14.2188C17.1915 14.4178 16.5156 14.6109 14.7084 14.0734C14.5034 14.0126 14.2923 13.945 14.075 13.87C13.9153 14.0404 13.7451 14.2003 13.5656 14.3497C13.884 14.4666 14.2057 14.5742 14.5303 14.6725C15.2 14.8934 15.8972 15.0201 16.6019 15.0491C17.2322 15.0491 17.6494 14.8763 17.8487 14.5309H17.8481C18.3762 13.6159 16.9634 12.1194 15.685 11.025ZM2.6928 5.78125C2.82123 5.55813 3.66623 5.35531 5.92155 6.13125C5.31215 6.77296 4.86278 7.54942 4.60998 8.3975C5.10249 8.825 5.61317 9.2311 6.14061 9.61469C7.0011 9.01027 7.88824 8.4447 8.79936 7.91969C9.70947 7.39318 10.6429 6.9081 11.5969 6.46594C11.5285 5.81828 11.4325 5.17383 11.309 4.53438C10.4488 4.32287 9.55016 4.3218 8.68936 4.53125C9.1453 2.19156 9.74311 1.5625 9.99998 1.5625C10.4153 1.5625 10.9375 2.64375 11.3084 4.53438C11.5396 4.58958 11.7671 4.65951 11.9894 4.74375C11.5975 2.52188 10.9297 0.9375 9.99998 0.9375C8.94311 0.9375 8.35342 2.90937 8.04498 4.56406L8.01217 4.74125C7.44308 4.95694 6.91291 5.26388 6.44248 5.65L6.26967 5.58906C4.68217 5.02938 2.67936 4.55406 2.15092 5.46875C1.68655 6.27375 2.72498 7.64469 4.45405 9.09562C4.49099 8.85984 4.54328 8.62665 4.60998 8.3975C3.16092 7.13281 2.48561 6.14062 2.6928 5.78125ZM10.0003 18.4375C9.74311 18.4375 9.1453 17.8084 8.68936 15.4688C9.55006 15.6782 10.4485 15.6771 11.3087 15.4656C11.4321 14.8263 11.5282 14.1819 11.5965 13.5344C10.6903 13.1156 9.74655 12.6275 8.79905 12.0806C7.88802 11.5555 7.00099 10.9898 6.14061 10.3853C5.61321 10.7691 5.10253 11.1753 4.60998 11.6028C4.8628 12.4509 5.31217 13.2273 5.92155 13.8691C3.66623 14.6447 2.82155 14.4416 2.6928 14.2191C2.48561 13.8597 3.16092 12.8675 4.60998 11.6028C4.54327 11.3736 4.49129 11.1403 4.45436 10.9044C2.7253 12.3553 1.68686 13.7262 2.15123 14.5312C2.36623 14.9034 2.8253 15.0456 3.40092 15.0456C4.38413 14.9832 5.35179 14.7692 6.26967 14.4113L6.4428 14.35C6.91322 14.7361 7.44339 15.0431 8.01248 15.2587L8.04561 15.4362C8.35373 17.0906 8.94342 19.0625 9.99998 19.0625C10.9294 19.0625 11.5972 17.4781 11.9894 15.2563C11.7671 15.3405 11.5399 15.4104 11.3087 15.4656C10.9384 17.3563 10.4156 18.4375 10.0003 18.4375ZM13.5656 5.65031C13.093 5.26466 12.5604 4.95826 11.9894 4.74375C12.0706 5.20375 12.1397 5.69094 12.1972 6.19688C12.6476 6.00056 13.104 5.8185 13.5656 5.65031ZM9.11155 8.46094C8.28072 8.93948 7.47052 9.45296 6.68311 10C7.47052 10.547 8.28072 11.0605 9.11155 11.5391C9.94204 12.019 10.7922 12.4642 11.6597 12.8734C11.734 11.9984 11.7772 11.0378 11.7772 10C11.7772 8.96219 11.734 8.00125 11.6597 7.12625C10.7921 7.5356 9.94203 7.98088 9.11155 8.46094ZM4.45436 9.09594C4.34872 9.69402 4.34872 10.3063 4.45436 10.9044C4.82897 10.5913 5.21311 10.2895 5.60623 10C5.21311 9.7105 4.82897 9.40901 4.45436 9.09594ZM11.9894 15.2563C12.5604 15.0417 13.093 14.7353 13.5656 14.3497C13.1039 14.1815 12.6476 13.9995 12.1972 13.8031C12.1429 14.2895 12.0734 14.7741 11.9894 15.2563Z" fill="white"/>
</svg>
