<svg width="24" height="24" viewBox="0 0 24 24" fill="none" xmlns="http://www.w3.org/2000/svg">
<g clip-path="url(#clip0_12396_2950)">
<path d="M5.7373 7.77148H17.2156C17.4518 7.77148 17.6783 7.67765 17.8454 7.51063C18.0124 7.3436 18.1062 7.11707 18.1062 6.88086C18.1062 6.64465 18.0124 6.41812 17.8454 6.25109C17.6783 6.08407 17.4518 5.99023 17.2156 5.99023H5.7373C5.5011 5.99023 5.27456 6.08407 5.10754 6.25109C4.94051 6.41812 4.84668 6.64465 4.84668 6.88086C4.84668 7.11707 4.94051 7.3436 5.10754 7.51063C5.27456 7.67765 5.5011 7.77148 5.7373 7.77148ZM13.4403 12.4327C13.4403 12.1965 13.3464 11.97 13.1794 11.803C13.0124 11.6359 12.7859 11.5421 12.5496 11.5421H5.7373C5.5011 11.5421 5.27456 11.6359 5.10754 11.803C4.94051 11.97 4.84668 12.1965 4.84668 12.4327C4.84668 12.6689 4.94051 12.8955 5.10754 13.0625C5.27456 13.2295 5.5011 13.3234 5.7373 13.3234H12.5496C12.7859 13.3234 13.0124 13.2295 13.1794 13.0625C13.3464 12.8955 13.4403 12.6689 13.4403 12.4327ZM19.0446 19.6055C18.7276 19.5568 18.405 19.5568 18.0879 19.6055C17.9923 19.6259 17.9046 19.6735 17.8355 19.7426C17.7663 19.8118 17.7187 19.8994 17.6984 19.9951C17.6496 20.312 17.6496 20.6344 17.6984 20.9513C17.7189 21.0469 17.7666 21.1345 17.8357 21.2036C17.9048 21.2727 17.9924 21.3204 18.0879 21.3409C18.405 21.3896 18.7276 21.3896 19.0446 21.3409C19.1402 21.3204 19.2277 21.2727 19.2968 21.2036C19.3658 21.1345 19.4134 21.0469 19.4337 20.9513C19.4831 20.6345 19.4831 20.3119 19.4337 19.9951C19.4135 19.8995 19.366 19.8118 19.297 19.7426C19.2279 19.6735 19.1402 19.6259 19.0446 19.6055ZM18.5661 19.0145C18.8023 19.0145 19.0288 18.9206 19.1958 18.7536C19.3628 18.5866 19.4567 18.36 19.4567 18.1238V16.6379C19.4567 16.4017 19.3628 16.1751 19.1958 16.0081C19.0288 15.8411 18.8023 15.7473 18.5661 15.7473C18.3298 15.7473 18.1033 15.8411 17.9363 16.0081C17.7693 16.1751 17.6754 16.4017 17.6754 16.6379V18.1238C17.6754 18.36 17.7693 18.5866 17.9363 18.7536C18.1033 18.9206 18.3298 19.0145 18.5661 19.0145Z" fill="white"/>
<path d="M18.565 14.9121C19.2878 14.912 19.9943 15.1262 20.5952 15.5277C21.1962 15.9292 21.6646 16.4998 21.9412 17.1675C22.2178 17.8352 22.2902 18.5699 22.1492 19.2787C22.0083 19.9876 21.6602 20.6387 21.1492 21.1497C20.6382 21.6608 19.9871 22.0088 19.2782 22.1497C18.5694 22.2907 17.8347 22.2183 17.167 21.9417C16.4993 21.6651 15.9287 21.1967 15.5272 20.5957C15.1257 19.9948 14.9115 19.2883 14.9116 18.5655C14.9123 17.5968 15.2975 16.668 15.9825 15.983C16.6675 15.298 17.5963 14.9129 18.565 14.9121ZM18.565 13.1309C17.49 13.1309 16.4392 13.4496 15.5454 14.0469C14.6516 14.6441 13.9549 15.493 13.5436 16.4862C13.1322 17.4794 13.0246 18.5722 13.2344 19.6265C13.4441 20.6809 13.9618 21.6493 14.722 22.4094C15.4821 23.1695 16.4506 23.6871 17.505 23.8968C18.5593 24.1065 19.6522 23.9988 20.6453 23.5873C21.6384 23.1759 22.4873 22.4792 23.0844 21.5853C23.6816 20.6914 24.0003 19.6405 24.0002 18.5655C24.0002 17.8518 23.8596 17.1451 23.5865 16.4857C23.3133 15.8263 22.913 15.2271 22.4082 14.7225C21.9035 14.2178 21.3044 13.8175 20.645 13.5444C19.9855 13.2713 19.2788 13.1308 18.565 13.1309Z" fill="white"/>
<path d="M13.771 21.1271C13.0364 21.1683 12.2771 21.1899 11.4858 21.1908C9.37644 21.1885 7.48738 21.0441 5.7141 20.7497C4.92613 20.6091 4.12832 20.1666 3.46644 19.5052C2.80457 18.8438 2.36347 18.0469 2.22238 17.258C1.928 15.4866 1.78363 13.5985 1.78128 11.4844C1.77894 9.37034 1.928 7.48549 2.22238 5.71268C2.36347 4.92612 2.80503 4.12831 3.46878 3.46878C4.13253 2.80924 4.92847 2.36534 5.71878 2.22424C7.48644 1.92799 9.37503 1.78362 11.4844 1.78128C13.5938 1.77893 15.4833 1.92799 17.2566 2.22237C18.0469 2.36346 18.8438 2.80503 19.5052 3.46878C20.1666 4.13252 20.6086 4.92846 20.7497 5.71877C21.0441 7.48737 21.1875 9.37502 21.1908 11.4844C21.1908 12.2761 21.1683 13.0355 21.1271 13.7696C21.7772 14.118 22.35 14.5946 22.8108 15.1707C22.9046 14.1244 22.9702 12.9057 22.9721 11.4844C22.9688 8.80924 22.7447 6.85034 22.5033 5.41081C22.0843 3.03893 19.9299 0.884557 17.558 0.465494C16.1203 0.227369 14.1614 0.00283801 11.4844 2.55143e-05C8.80738 -0.00278699 6.85175 0.227369 5.41222 0.468775C3.04035 0.885963 0.885972 3.04034 0.468785 5.41221C0.227378 6.85174 0.00331585 8.81252 3.45996e-05 11.4844C-0.00324665 14.1563 0.227378 16.1203 0.468785 17.5599C0.887378 19.9317 3.04222 22.0861 5.4141 22.5052C6.85363 22.7447 8.81253 22.9688 11.4877 22.9739C12.9089 22.9739 14.1277 22.9083 15.1739 22.8127C14.597 22.3515 14.1198 21.7781 13.771 21.1271Z" fill="white"/>
</g>
<defs>
<clipPath id="clip0_12396_2950">
<rect width="24" height="24" fill="white"/>
</clipPath>
</defs>
</svg>
