<svg width="24" height="24" viewBox="0 0 24 24" fill="none" xmlns="http://www.w3.org/2000/svg">
<path d="M7.91982 13.4697C9.32968 13.4697 10.4596 14.6105 10.4599 16.0303V19.4395C10.4599 20.8495 9.32982 22 7.91982 22H4.53994C3.13994 22 1.9999 20.8495 1.9999 19.4395V16.0303C2.00013 14.6105 3.14008 13.4697 4.53994 13.4697H7.91982ZM19.4599 13.4697C20.8597 13.4697 21.9997 14.6105 21.9999 16.0303V19.4395C21.9999 20.8495 20.8599 22 19.4599 22H16.08C14.67 22 13.5399 20.8494 13.5399 19.4395V16.0303C13.5402 14.6105 14.6701 13.4697 16.08 13.4697H19.4599ZM7.91982 2C9.32967 2 10.4596 3.14975 10.4599 4.56055V7.96973C10.4599 9.38973 9.32982 10.5303 7.91982 10.5303H4.53994C3.13994 10.5303 1.9999 9.38973 1.9999 7.96973V4.56055C2.00014 3.14975 3.14009 2 4.53994 2H7.91982ZM19.4599 2C20.8597 2 21.9997 3.14975 21.9999 4.56055V7.96973C21.9999 9.38973 20.8599 10.5303 19.4599 10.5303H16.08C14.67 10.5303 13.5399 9.38972 13.5399 7.96973V4.56055C13.5402 3.14976 14.6701 2.00001 16.08 2H19.4599Z" fill="#23769D"/>
</svg>
