 <svg width="24" height="24" viewBox="0 0 24 24" fill="none" xmlns="http://www.w3.org/2000/svg">
<path d="M7.9198 13.4697C9.32966 13.4697 10.4596 14.6105 10.4598 16.0303V19.4395C10.4598 20.8495 9.3298 22 7.9198 22H4.53992C3.13992 22 1.99988 20.8495 1.99988 19.4395V16.0303C2.00011 14.6105 3.14006 13.4697 4.53992 13.4697H7.9198ZM19.4598 13.4697C20.8597 13.4697 21.9996 14.6105 21.9999 16.0303V19.4395C21.9999 20.8495 20.8598 22 19.4598 22H16.08C14.67 22 13.5399 20.8494 13.5399 19.4395V16.0303C13.5401 14.6105 14.6701 13.4697 16.08 13.4697H19.4598ZM7.9198 2C9.32965 2 10.4596 3.14975 10.4598 4.56055V7.96973C10.4598 9.38973 9.3298 10.5303 7.9198 10.5303H4.53992C3.13992 10.5303 1.99988 9.38973 1.99988 7.96973V4.56055C2.00012 3.14975 3.14007 2 4.53992 2H7.9198ZM19.4598 2C20.8597 2 21.9996 3.14975 21.9999 4.56055V7.96973C21.9999 9.38973 20.8598 10.5303 19.4598 10.5303H16.08C14.67 10.5303 13.5399 9.38972 13.5399 7.96973V4.56055C13.5402 3.14976 14.6701 2.00001 16.08 2H19.4598Z" fill="#4D4D4D"/>
</svg>
